<svg id="giftbox" xmlns="http://www.w3.org/2000/svg" width="16.028" height="16" viewBox="0 0 16.028 16">
  <g id="Group_976" data-name="Group 976" transform="translate(0 0)">
    <g id="Group_975" data-name="Group 975">
      <path id="Path_2663" data-name="Path 2663" d="M14.982,3.556H13.816A1.856,1.856,0,0,0,14.1,2.75,2.075,2.075,0,0,0,10.644.989L9.171,2.325a1.566,1.566,0,0,0-2.316,0L5.38.989A2.075,2.075,0,0,0,1.924,2.75a1.856,1.856,0,0,0,.284.806H1.045A1.045,1.045,0,0,0,0,4.6V6.169a.523.523,0,0,0,.523.523H15.5a.523.523,0,0,0,.523-.523V4.6A1.045,1.045,0,0,0,14.982,3.556ZM6.446,3.382v.174H3.987a1.029,1.029,0,0,1-.434-1.962,1.006,1.006,0,0,1,1.126.17l1.768,1.6C6.446,3.371,6.446,3.376,6.446,3.382Zm6.617-.771a1.059,1.059,0,0,1-1.074.945H9.582V3.382c0-.006,0-.012,0-.018l1.74-1.577a1.045,1.045,0,0,1,.989-.253A1.017,1.017,0,0,1,13.063,2.611Z" transform="translate(0 -0.448)" fill="#224177"/>
    </g>
  </g>
  <g id="Group_978" data-name="Group 978" transform="translate(1.045 7.289)">
    <g id="Group_977" data-name="Group 977">
      <path id="Path_2664" data-name="Path 2664" d="M33.391,233.291v7.665A1.045,1.045,0,0,0,34.436,242h4.878v-8.711Z" transform="translate(-33.391 -233.291)" fill="#224177"/>
    </g>
  </g>
  <g id="Group_980" data-name="Group 980" transform="translate(9.059 7.289)">
    <g id="Group_979" data-name="Group 979">
      <path id="Path_2665" data-name="Path 2665" d="M289.391,233.291V242h4.878a1.045,1.045,0,0,0,1.045-1.045v-7.665Z" transform="translate(-289.391 -233.291)" fill="#224177"/>
    </g>
  </g>
</svg>
