<svg xmlns="http://www.w3.org/2000/svg" xmlns:xlink="http://www.w3.org/1999/xlink" width="367.427" height="240" viewBox="0 0 367.427 240">
  <defs>
    <linearGradient id="linear-gradient" x2="1" y2="1" gradientUnits="objectBoundingBox">
      <stop offset="0" stop-color="#af6bad"/>
      <stop offset="1" stop-color="#7f4cb1"/>
    </linearGradient>
    <linearGradient id="linear-gradient-2" x1="0.5" x2="0.5" xlink:href="#linear-gradient"/>
    <linearGradient id="linear-gradient-3" x1="0.5" y1="1" x2="0.5" y2="0" xlink:href="#linear-gradient"/>
  </defs>
  <g id="Group_5079" data-name="Group 5079" transform="translate(-678.574 -138)">
    <g id="Group_4680" data-name="Group 4680" transform="translate(486)">
      <rect id="Rectangle_2866" data-name="Rectangle 2866" width="367" height="240" rx="30" transform="translate(193 138)" fill="url(#linear-gradient)"/>
      <path id="Intersection_6" data-name="Intersection 6" d="M-2435-4321a29.862,29.862,0,0,1-14.78-3.887,48.541,48.541,0,0,1,2.591-23.618c11.64-31.746,37.037-47.089,130.156-58.2s66.664-41.27,130.684-94.707c39.379-32.87,70.343-31.91,88.351-26.3V-4351a30,30,0,0,1-30,30Z" transform="translate(2658 4699)" fill="url(#linear-gradient-2)"/>
      <path id="Intersection_7" data-name="Intersection 7" d="M268.477,161.364c-64.019-53.438-44.972-75.13-138.091-86.241S16.633,54.489,4.993,22.744A82.427,82.427,0,0,1,0,.193,30.313,30.313,0,0,1,3.426,0h307a30,30,0,0,1,30,30V189.032C316.935,187.645,291.324,180.434,268.477,161.364Z" transform="translate(533 378) rotate(180)" fill="url(#linear-gradient-3)"/>
    </g>
  </g>
</svg>
