<svg id="Group_4459" data-name="Group 4459" xmlns="http://www.w3.org/2000/svg" width="24" height="24" viewBox="0 0 24 24">
  <path id="Path_51" data-name="Path 51" d="M146.3,29a4,4,0,0,1,4,4V45a4,4,0,0,1-4,4h-12a4,4,0,0,1-4-4V33a4,4,0,0,1,4-4h12m0-2h-12a6,6,0,0,0-6,6V45a6,6,0,0,0,6,6h12a6,6,0,0,0,6-6V33a6,6,0,0,0-6-6Z" transform="translate(-128.3 -27)" fill="#fff"/>
  <path id="Path_53" data-name="Path 53" d="M141.567,40H133.8a1,1,0,0,1,0-2h7.767a1,1,0,0,1,0,2Z" transform="translate(-128.3 -27)" fill="#fff"/>
  <path id="Path_56" data-name="Path 56" d="M141.567,40H133.8a1,1,0,0,1,0-2h7.767a1,1,0,0,1,0,2Z" transform="translate(-128.3 -32)" fill="#fff"/>
  <path id="Path_55" data-name="Path 55" d="M141.567,40H133.8a1,1,0,0,1,0-2h7.767a1,1,0,0,1,0,2Z" transform="translate(-128.3 -22)" fill="#fff"/>
</svg>
