<svg xmlns="http://www.w3.org/2000/svg" width="203" height="203" viewBox="0 0 203 203">
  <g id="Group_4984" data-name="Group 4984" transform="translate(-631.208 -26)">
    <path id="Path_2934" data-name="Path 2934" d="M727.422,140.187h10.572a89.783,89.783,0,0,1,77.969,45.286A101.436,101.436,0,0,0,732.708,26h0a101.426,101.426,0,0,0-83.247,159.473A89.77,89.77,0,0,1,727.422,140.187Z" fill="#d86767"/>
    <path id="Path_2935" data-name="Path 2935" d="M716.613,128.313h0a101.336,101.336,0,0,0,83.256-43.527A89.783,89.783,0,0,0,721.9,39.5H711.327a89.769,89.769,0,0,0-77.96,45.286A101.329,101.329,0,0,0,716.613,128.313Z" transform="translate(16.095 100.688)" fill="#fff"/>
    <circle id="Ellipse_67" data-name="Ellipse 67" cx="38.351" cy="38.351" r="38.351" transform="translate(694.36 52.913)" fill="#fff"/>
  </g>
</svg>
