<svg xmlns="http://www.w3.org/2000/svg" width="24" height="24" viewBox="0 0 24 24">
  <g id="Group_4792" data-name="Group 4792" transform="translate(-405 -27.056)">
    <path id="Path_2909" data-name="Path 2909" d="M418,28.166v6.547a3.308,3.308,0,0,0,3.309,3.309h6.547a1.115,1.115,0,0,0,1.1-1.239,11.032,11.032,0,0,0-9.721-9.721A1.115,1.115,0,0,0,418,28.166Z" transform="translate(0.027 0)" fill="#fff"/>
    <path id="Path_2910" data-name="Path 2910" d="M414.98,29.005a11.049,11.049,0,1,0,8.09,19.526.969.969,0,0,0,.071-1.431L418,41.96a6.684,6.684,0,0,1-1.958-4.727V29.966A.97.97,0,0,0,414.98,29.005Z" transform="translate(0 0.004)" fill="#fff"/>
    <path id="Path_2911" data-name="Path 2911" d="M419.107,40.4l5.936,5.936a1.013,1.013,0,0,0,1.5-.081,10.964,10.964,0,0,0,2.423-5.859,1.008,1.008,0,0,0-1-1.105h-8.4A.65.65,0,0,0,419.107,40.4Z" transform="translate(0.029 0.03)" fill="#5e5e5e"/>
  </g>
</svg>
