<svg xmlns="http://www.w3.org/2000/svg" width="16" height="16" viewBox="0 0 16 16">
  <g id="Group_4802" data-name="Group 4802" transform="translate(-370 -27)">
    <path id="Path_3168" data-name="Path 3168" d="M4,0h8a4,4,0,0,1,4,4v8a4,4,0,0,1-4,4H4a4,4,0,0,1-4-4V4A4,4,0,0,1,4,0Z" transform="translate(370 27)" fill="#fff"/>
    <path id="Path_2923" data-name="Path 2923" d="M384.826,30.946a.985.985,0,0,0-1.409,0l-3.258,3.32a1.888,1.888,0,0,1-2.7,0l-3.258-3.32a.985.985,0,0,0-1.409,0,1.029,1.029,0,0,0,0,1.435l3.259,3.32a3.855,3.855,0,0,0,5.517,0l3.258-3.32A1.029,1.029,0,0,0,384.826,30.946Z" transform="translate(-0.809 -1.239)" fill="#5e5e5e"/>
  </g>
</svg>
