<svg xmlns="http://www.w3.org/2000/svg" width="17" height="17" viewBox="0 0 17 17">
  <g id="Group_4793" data-name="Group 4793" transform="translate(-440.5 -26.684)">
    <path id="Exclusion_4" data-name="Exclusion 4" d="M12,16H4a4,4,0,0,1-4-4V8.666a3.985,3.985,0,0,1,3.334-3.94V4a4,4,0,0,1,4-4H8.667a4,4,0,0,1,4,4v.727A3.985,3.985,0,0,1,16,8.666V12A4,4,0,0,1,12,16ZM8,7.6a1.875,1.875,0,0,0-.627,3.643V12.61a.626.626,0,1,0,1.253,0V11.242A1.875,1.875,0,0,0,8,7.6ZM7.333,1.333A2.669,2.669,0,0,0,4.667,4v.667h6.666V4A2.669,2.669,0,0,0,8.667,1.333Z" transform="translate(441 27.184)" fill="#fff" stroke="rgba(0,0,0,0)" stroke-miterlimit="10" stroke-width="1"/>
  </g>
</svg>
