<svg xmlns="http://www.w3.org/2000/svg" width="24" height="24" viewBox="0 0 24 24">
  <g id="Group_4787" data-name="Group 4787" transform="translate(-306 -27)">
    <path id="Path_2903" data-name="Path 2903" d="M315.5,37h-1a8.5,8.5,0,0,0-8.5,8.5h0a5.5,5.5,0,0,0,5.5,5.5h7a5.5,5.5,0,0,0,5.5-5.5h0A8.5,8.5,0,0,0,315.5,37Z" fill="#f0de9f"/>
    <circle id="Ellipse_59" data-name="Ellipse 59" cx="4.5" cy="4.5" r="4.5" transform="translate(311 27)" fill="#f0de9f"/>
    <circle id="Ellipse_60" data-name="Ellipse 60" cx="3.5" cy="3.5" r="3.5" transform="translate(321 32)" fill="#f0de9f"/>
    <path id="Path_2904" data-name="Path 2904" d="M324.5,40h-1c-.087,0-.172.009-.259.013A9.441,9.441,0,0,1,325,45.5a6.5,6.5,0,0,1-2.8,5.339,5.533,5.533,0,0,0,1.3.161h1a5.5,5.5,0,0,0,0-11Z" fill="#5e5e5e"/>
  </g>
</svg>
