<svg xmlns="http://www.w3.org/2000/svg" xmlns:xlink="http://www.w3.org/1999/xlink" width="1920" height="1080" viewBox="0 0 1920 1080">
  <defs>
    <clipPath id="clip-Log_in_web">
      <rect width="1920" height="1080"/>
    </clipPath>
  </defs>
  <g id="Log_in_web" data-name="Log in web" clip-path="url(#clip-Log_in_web)">
    <rect width="1920" height="1080" fill="#1a1a1a"/>
    <g id="Group_5188" data-name="Group 5188">
      <path id="Intersection_12" data-name="Intersection 12" d="M11296.254-10805.037a220.886,220.886,0,0,1-45.225-15.141,219.242,219.242,0,0,1-37.028-21.7v-26.242a200.56,200.56,0,0,0,130.24,47.758h.017a201.325,201.325,0,0,0,127.732-45.9l325.226-268.023H11828l-344.707,284.08a219.417,219.417,0,0,1-66.819,37.795,219.452,219.452,0,0,1-73.04,12.453A221.968,221.968,0,0,1,11296.254-10805.037Z" transform="translate(-11214.001 11134.283)" fill="#292929" stroke="rgba(0,0,0,0)" stroke-miterlimit="10" stroke-width="1"/>
      <path id="Intersection_13" data-name="Intersection 13" d="M412.186,0l4.346,3.582a173.132,173.132,0,0,1,23.424,243.75l-3.5,4.248a173.054,173.054,0,0,1-243.8,23.427L0,116.161v23.765L181.251,289.367a190.036,190.036,0,0,0,89.38,40.937,191.749,191.749,0,0,0,112.212-14.867,190.179,190.179,0,0,0,36.011-21.728,192.187,192.187,0,0,0,31.224-30.169l3.866-4.684A192.811,192.811,0,0,0,475.435,226.7a189.887,189.887,0,0,0,21.275-70.946,191.462,191.462,0,0,0-20.8-106.814,189.977,189.977,0,0,0-20.576-31.388A192.132,192.132,0,0,0,439.238,0Z" transform="translate(1920 1080) rotate(180)" fill="#2e2e2e" stroke="rgba(0,0,0,0)" stroke-miterlimit="10" stroke-width="1"/>
    </g>
  </g>
</svg>
