<svg xmlns="http://www.w3.org/2000/svg" xmlns:xlink="http://www.w3.org/1999/xlink" width="44" height="44" viewBox="0 0 44 44">
  <defs>
    <linearGradient id="linear-gradient" x1="0.5" x2="0.5" y2="1" gradientUnits="objectBoundingBox">
      <stop offset="0" stop-color="#93bc6f"/>
      <stop offset="1" stop-color="#b1b963"/>
    </linearGradient>
  </defs>
  <g id="Group_5192" data-name="Group 5192" transform="translate(-400 -148)">
    <rect id="Rectangle_2983" data-name="Rectangle 2983" width="44" height="44" rx="20" transform="translate(400 148)" fill="#292929"/>
    <g id="Group_4845" data-name="Group 4845" transform="translate(-381.803 130.022)">
      <rect id="Rectangle_2984" data-name="Rectangle 2984" width="23.964" height="23.964" transform="translate(791.803 27.977)" fill="#878787" opacity="0"/>
      <g id="Group_4844" data-name="Group 4844" transform="translate(791.803 27.978)">
        <path id="Path_2962" data-name="Path 2962" d="M3.182,0h0A3.182,3.182,0,0,1,6.364,3.182V20.107a1,1,0,0,1-1,1H1a1,1,0,0,1-1-1V3.182A3.182,3.182,0,0,1,3.182,0Z" transform="translate(4.5 24) rotate(-135)" fill="#fff"/>
        <rect id="Rectangle_2986" data-name="Rectangle 2986" width="6.364" height="5" rx="1" transform="translate(20.464 8.036) rotate(-135)" fill="url(#linear-gradient)"/>
      </g>
    </g>
  </g>
</svg>
