<svg xmlns="http://www.w3.org/2000/svg" width="24" height="24" viewBox="0 0 24 24">
  <g id="Group_4808" data-name="Group 4808" transform="translate(-597 -27)">
    <rect id="Rectangle_2957" data-name="Rectangle 2957" width="17" height="21.972" rx="6" transform="translate(597 29.028)" fill="#fff"/>
    <g id="Group_4807" data-name="Group 4807">
      <path id="Path_2931" data-name="Path 2931" d="M615,27h-5a5.908,5.908,0,0,0-3.314,1.014H608a7.058,7.058,0,0,1,7,7.1v9.8a7.122,7.122,0,0,1-1.264,4.057H615a6.043,6.043,0,0,0,6-6.085v-9.8A6.043,6.043,0,0,0,615,27Z" fill="#fff"/>
    </g>
    <path id="Path_2932" data-name="Path 2932" d="M610,36.5h-9a1.5,1.5,0,0,0,0,3h9a1.5,1.5,0,0,0,0-3Z"/>
  </g>
</svg>
