<svg xmlns="http://www.w3.org/2000/svg" xmlns:xlink="http://www.w3.org/1999/xlink" width="389.469" height="415.189" viewBox="0 0 389.469 415.189">
  <defs>
    <linearGradient id="linear-gradient" x1="0.5" x2="0.5" y2="1" gradientUnits="objectBoundingBox">
      <stop offset="0" stop-color="#f0de9f"/>
      <stop offset="1" stop-color="#786f50"/>
    </linearGradient>
    <clipPath id="clip-path">
      <rect id="Rectangle_2889" data-name="Rectangle 2889" width="75.306" height="75.306" transform="translate(0 17.35) rotate(-13.32)" fill="#f0de9f" stroke="#263238" stroke-linecap="round" stroke-linejoin="round" stroke-width="1"/>
    </clipPath>
    <clipPath id="clip-path-2">
      <path id="Path_2803" data-name="Path 2803" d="M290.9,429.258c-18.309,4.335-44.254,8.412-59.9,10.711-8.184,1.193-13.563,1.9-13.563,1.9C210.5,429.153,197.992,378,197.992,378l73.281-17.349c.139.628.268,1.249.4,1.867C280.419,402.113,290.9,429.258,290.9,429.258Z" transform="translate(-197.992 -360.649)" fill="#fff" stroke="#263238" stroke-linecap="round" stroke-linejoin="round" stroke-width="1"/>
    </clipPath>
    <linearGradient id="linear-gradient-3" x1="0.5" x2="0.5" y2="1" gradientUnits="objectBoundingBox">
      <stop offset="0" stop-color="#93bc6f"/>
      <stop offset="1" stop-color="#b1b963"/>
    </linearGradient>
    <clipPath id="clip-path-3">
      <path id="Path_2821" data-name="Path 2821" d="M59.607,121.831l7.426,134.191L64.3,267.055,60.36,256.39,52.935,122.2a1.681,1.681,0,0,1,1.588-1.775l3.309-.183A1.681,1.681,0,0,1,59.607,121.831Z" transform="translate(-52.932 -120.24)" fill="#92e3a9" stroke="#263238" stroke-linecap="round" stroke-linejoin="round" stroke-width="1"/>
    </clipPath>
  </defs>
  <g id="Group_5188" data-name="Group 5188" transform="translate(-59.93 -23.728)">
    <g id="Group_4695" data-name="Group 4695" transform="translate(59.93 23.728)">
      <path id="Path_2797" data-name="Path 2797" d="M178.914,24.058c-30.7,5.067-60.138,16.217-85.146,35.494C57.389,87.6,37.208,129.519,35.1,175.112c-1.389,30.094,5.8,59.439,14.477,88.015,11.167,36.762,18.372,78.637,41.691,110.059,36.3,48.915,106.47,69.523,165.148,60.769,37.911-5.655,77.969-27.187,89.629-66.1,4.317-14.408,6.421-29.888,13.8-43.2,8.844-15.954,24.884-25.272,37.061-38.261,15.044-16.047,21.105-36.038,24.853-57.185,8.2-46.281-3-95.318-30.042-133.709C363.5,55.432,321.631,33.943,274.1,25.483q-7.827-1.392-15.719-2.37C232.271,19.841,205.129,19.732,178.914,24.058Z" transform="translate(-34.93 -20.727)" opacity="0.3" fill="url(#linear-gradient)"/>
      <path id="Path_2798" data-name="Path 2798" d="M178.914,24.058c-30.7,5.067-60.138,16.217-85.146,35.494C57.389,87.6,37.208,129.519,35.1,175.112c-1.389,30.094,5.8,59.439,14.477,88.015,11.167,36.762,18.372,78.637,41.691,110.059,36.3,48.915,106.47,69.523,165.148,60.769,37.911-5.655,77.969-27.187,89.629-66.1,4.317-14.408,6.421-29.888,13.8-43.2,8.844-15.954,24.884-25.272,37.061-38.261,15.044-16.047,21.105-36.038,24.853-57.185,8.2-46.281-3-95.318-30.042-133.709C363.5,55.432,321.631,33.943,274.1,25.483q-7.827-1.392-15.719-2.37C232.271,19.841,205.129,19.732,178.914,24.058Z" transform="translate(-34.93 -20.727)" opacity="0.2" fill="url(#linear-gradient)"/>
    </g>
    <g id="Group_4701" data-name="Group 4701" transform="translate(207.574 331.509)">
      <path id="Path_2799" data-name="Path 2799" d="M201.282,381.183l75.767-14.135s17.146,54.11,20.611,61.108l-1.83,4.249,1.142,7.109-75.283,17.13-6.036-4.76Z" transform="translate(-198.303 -361.254)" fill="rgba(0,0,0,0.7)" opacity="0.2"/>
      <g id="Group_4700" data-name="Group 4700">
        <g id="Group_4697" data-name="Group 4697" transform="translate(0)">
          <rect id="Rectangle_2888" data-name="Rectangle 2888" width="75.306" height="75.306" transform="translate(0 17.35) rotate(-13.32)" fill="#f0de9f"/>
          <g id="Group_4696" data-name="Group 4696" clip-path="url(#clip-path)">
            <path id="Path_2800" data-name="Path 2800" d="M276.513,382.476l12.157,51.35-69.88,16.544c-8.422-21.072-14.862-47.6-14.862-47.6Z" transform="translate(-198.554 -362.713)" fill="#f0de9f" opacity="0.2"/>
          </g>
          <rect id="Rectangle_2890" data-name="Rectangle 2890" width="75.306" height="75.306" transform="translate(0 17.35) rotate(-13.32)" fill="none" stroke="#263238" stroke-linecap="round" stroke-linejoin="round" stroke-width="1"/>
        </g>
        <g id="Group_4699" data-name="Group 4699" transform="translate(0 0)">
          <path id="Path_2801" data-name="Path 2801" d="M290.9,429.258c-18.309,4.335-44.254,8.412-59.9,10.711-8.184,1.193-13.563,1.9-13.563,1.9C210.5,429.153,197.992,378,197.992,378l73.281-17.349c.139.628.268,1.249.4,1.867C280.419,402.113,290.9,429.258,290.9,429.258Z" transform="translate(-197.992 -360.649)" fill="#fff"/>
          <g id="Group_4698" data-name="Group 4698" clip-path="url(#clip-path-2)">
            <path id="Path_2802" data-name="Path 2802" d="M292.842,429.452c-18.309,4.335-44.254,8.412-59.9,10.711-11.751-7.816-14.586-15.479-14.444-22.779.159-8.681,37.947-.2,45.845-8.792,5.634-6.129,5.471-32.15,9.273-45.882C282.358,402.308,292.842,429.452,292.842,429.452Z" transform="translate(-199.93 -360.844)" fill="#f0de9f" opacity="0.4"/>
          </g>
          <path id="Path_2804" data-name="Path 2804" d="M290.9,429.258c-18.309,4.335-44.254,8.412-59.9,10.711-8.184,1.193-13.563,1.9-13.563,1.9C210.5,429.153,197.992,378,197.992,378l73.281-17.349c.139.628.268,1.249.4,1.867C280.419,402.113,290.9,429.258,290.9,429.258Z" transform="translate(-197.992 -360.649)" fill="none" stroke="#263238" stroke-linecap="round" stroke-linejoin="round" stroke-width="1"/>
        </g>
        <path id="Path_2805" data-name="Path 2805" d="M211.646,390.811a13.05,13.05,0,0,1,3.523-2.867l1.089,2.787,3.8-1.38c1.266-.46,2.673-1.052,3.158-2.309.7,1.656,3.1,1.376,4.811.826a265.024,265.024,0,0,1,36.222-8.9" transform="translate(-199.283 -362.381)" fill="none" stroke="#263238" stroke-linecap="round" stroke-linejoin="round" stroke-width="1"/>
        <path id="Path_2806" data-name="Path 2806" d="M213.645,401.922c-.792-.407-.139-1.823.75-1.754a1.956,1.956,0,0,1,1.527,1.92,1.884,1.884,0,0,0,1.6-1.472l1.255.876a1.377,1.377,0,1,1,2.369-1.386c-.091-1.028.311-2.519,1.313-2.277a2.634,2.634,0,0,1,.848.55,2.278,2.278,0,0,0,3.4-1.413c.987,1.125,2.751.969,4.226.717l13.187-2.246c.12-.83.54-1.9,1.371-1.789.484.066.8.535,1.218.78a2.833,2.833,0,0,0,2.022.072,114.985,114.985,0,0,0,17.425-5.241" transform="translate(-199.438 -363.354)" fill="none" stroke="#263238" stroke-linecap="round" stroke-linejoin="round" stroke-width="1"/>
        <path id="Path_2807" data-name="Path 2807" d="M218.7,414.634a11.825,11.825,0,0,0,5.2-.715,3.015,3.015,0,0,1,.854-3.672l1.6,1.022a84.308,84.308,0,0,0,19-2.618c2.786-.714,5.534-1.571,8.281-2.427l15.628-4.873" transform="translate(-199.95 -364.497)" fill="none" stroke="#263238" stroke-linecap="round" stroke-linejoin="round" stroke-width="1"/>
      </g>
    </g>
    <g id="Group_4703" data-name="Group 4703" transform="translate(226.031 46.559)">
      <path id="Path_2808" data-name="Path 2808" d="M340.464,60.038l-1.455.091a2.834,2.834,0,0,1-3.056-2.064c-2.219-8.1-10.35-12.655-19.779-12.071-8.5.527-17.446,5.885-22.633,13.291a7.891,7.891,0,0,1-5.723,3.51l-7.235.448a4.637,4.637,0,0,1-4.719-2.861c-2.928-6.9-10.344-11.247-18.843-10.721C247.591,50.245,237.85,55.9,233,64.446a4.87,4.87,0,0,1-3.774,2.488l-1.455.09a1.6,1.6,0,0,0-1.394,1.309l-.575,3.643a.946.946,0,0,0,.706,1.139l1.763.528a3.066,3.066,0,0,1,2.171,3.236c-.621,11.6,7.564,20.123,19.219,19.4,11.241-.7,21.931-9.763,25.423-20.95a5.774,5.774,0,0,1,3.955-3.766,20.552,20.552,0,0,1,7.635-.537,3.261,3.261,0,0,1,2.892,3.359c-.027,10.995,7.991,18.925,19.248,18.227,11.654-.722,22.719-10.438,25.782-22.189a5.447,5.447,0,0,1,3.245-3.572l1.966-.759a1.628,1.628,0,0,0,1.083-1.25l.575-3.644A.942.942,0,0,0,340.464,60.038ZM250.15,93.2c-10.832.671-18.211-7.858-16.451-19.015s12-20.778,22.836-21.449,18.211,7.858,16.451,19.014S260.982,92.53,250.15,93.2Zm26.064-23.8q.065-.952.051-1.875a1.081,1.081,0,0,1,.967-1.03l12.965-.8a.66.66,0,0,1,.658.93q-.306.932-.541,1.883C284.736,66.864,279.167,68.32,276.214,69.4ZM309.3,89.535c-10.831.672-18.211-7.858-16.45-19.014s12-20.779,22.835-21.45,18.212,7.858,16.451,19.014S320.135,88.864,309.3,89.535Z" transform="translate(-219.077 -45.944)" fill="rgba(0,0,0,0.7)" opacity="0.2"/>
      <path id="Path_2809" data-name="Path 2809" d="M331.174,64.023l-83.08,11.006a14.142,14.142,0,0,0-9.8,6.006L226.135,98.722a1.315,1.315,0,0,0,.613,1.974h0a3.888,3.888,0,0,0,4.594-1.426l11.243-16.335a8.545,8.545,0,0,1,5.838-3.615L331.48,67.553Z" transform="translate(-219.088 -47.653)" fill="#263238"/>
      <path id="Path_2810" data-name="Path 2810" d="M218.379,71.574l83.794-1.385a14.146,14.146,0,0,1,10.576,4.493l14.643,15.7a1.316,1.316,0,0,1-.314,2.043h0a3.889,3.889,0,0,1-4.755-.732l-13.532-14.5a8.543,8.543,0,0,0-6.309-2.713l-83.883.63Z" transform="translate(-218.377 -48.236)" fill="#263238"/>
      <g id="Group_4702" data-name="Group 4702" transform="translate(45.226 27.533)">
        <path id="Path_2811" data-name="Path 2811" d="M273.89,77.6c1.031.2.982,7.218-1.347,9.629s-4.733-3.415-4.121-5.494S270.657,76.985,273.89,77.6Z" transform="translate(-268.325 -76.461)" fill="#f0de9f" stroke="#263238" stroke-linecap="round" stroke-linejoin="round" stroke-width="1"/>
        <path id="Path_2812" data-name="Path 2812" d="M290.508,76.586c-1,.321-.084,7.284,2.525,9.389s4.276-3.974,3.411-5.961S293.64,75.578,290.508,76.586Z" transform="translate(-270.385 -76.351)" fill="#f0de9f" stroke="#263238" stroke-linecap="round" stroke-linejoin="round" stroke-width="1"/>
      </g>
      <path id="Path_2813" data-name="Path 2813" d="M232.559,58.7c4.383-3.749,13.66-10.135,23.82-4.063S270.049,67.3,267.961,76.25s-8.482,20.891-23.548,18.805S218.948,70.34,232.559,58.7Z" transform="translate(-219.119 -46.528)" fill="#f0de9f" opacity="0.5"/>
      <path id="Path_2814" data-name="Path 2814" d="M297.985,55.5c4.382-3.749,13.66-10.135,23.82-4.063s13.67,12.659,11.582,21.614-8.482,20.89-23.548,18.806S284.374,67.141,297.985,55.5Z" transform="translate(-225.305 -46.226)" fill="#f0de9f" opacity="0.5"/>
      <path id="Path_2815" data-name="Path 2815" d="M332.193,61.174l-1.455.091a3.725,3.725,0,0,1-3.552-2C323.153,51.4,313.909,47,304.48,47.587a24.5,24.5,0,0,0-20.016,12.942,6.086,6.086,0,0,1-5.03,3.416l-7.235.449a6.09,6.09,0,0,1-5.413-2.77,24.5,24.5,0,0,0-21.461-10.371c-9.428.585-18.058,6.1-21.089,14.395a3.724,3.724,0,0,1-3.279,2.421l-1.455.091a1.2,1.2,0,0,0-1.125,1.273l.219,3.538a1.2,1.2,0,0,0,.966,1.1l1.9.509a3.975,3.975,0,0,1,2.913,3.137,22.675,22.675,0,0,0,44.91-1.586,4.248,4.248,0,0,1,3.18-3.663,20.7,20.7,0,0,1,7.621-.535,4.278,4.278,0,0,1,3.67,3.256,22.675,22.675,0,0,0,44.773-3.928,3.975,3.975,0,0,1,2.5-3.473l1.825-.74a1.2,1.2,0,0,0,.823-1.215l-.219-3.537A1.2,1.2,0,0,0,332.193,61.174ZM247.946,93.527a19.681,19.681,0,1,1,18.426-20.862A19.7,19.7,0,0,1,247.946,93.527Zm21.181-23.146q-.144-.925-.361-1.821a.82.82,0,0,1,.754-1l12.964-.8a.821.821,0,0,1,.872.9q-.1.9-.134,1.828A23.336,23.336,0,0,0,269.127,70.381ZM307.1,89.86A19.681,19.681,0,1,1,325.526,69,19.7,19.7,0,0,1,307.1,89.86Z" transform="translate(-218.376 -46.094)" fill="#5e5e5e" stroke="#263238" stroke-linecap="round" stroke-linejoin="round" stroke-width="1"/>
      <path id="Path_2816" data-name="Path 2816" d="M234.586,87.437s-7.254-9.581-2.133-20.719c4.607-10.02,15.408-11.16,20.5-9.011L241.789,77.145a67.731,67.731,0,0,1,4.618-13.805S236.566,73.289,234.586,87.437Z" transform="translate(-219.534 -46.97)" fill="#fff" opacity="0.4"/>
      <path id="Path_2817" data-name="Path 2817" d="M299.762,82.769s-7.254-9.581-2.133-20.719c4.607-10.02,15.408-11.161,20.5-9.011L306.964,72.477a43.85,43.85,0,0,1,4.619-13.805S301.742,68.621,299.762,82.769Z" transform="translate(-225.697 -46.528)" fill="#fff" opacity="0.4"/>
    </g>
    <g id="Group_4707" data-name="Group 4707" transform="translate(76.23 113.831)">
      <path id="Path_2818" data-name="Path 2818" d="M64.8,258.748l2.63,11.8,3-13.353-7.88-133.4H57.176Z" transform="translate(-53.333 -120.576)" fill="rgba(0,0,0,0.7)" opacity="0.2"/>
      <g id="Group_4706" data-name="Group 4706">
        <g id="Group_4705" data-name="Group 4705">
          <path id="Path_2819" data-name="Path 2819" d="M59.607,121.831l7.426,134.191L64.3,267.055,60.36,256.39,52.935,122.2a1.681,1.681,0,0,1,1.588-1.775l3.309-.183A1.681,1.681,0,0,1,59.607,121.831Z" transform="translate(-52.932 -120.24)" fill="url(#linear-gradient-3)"/>
          <g id="Group_4704" data-name="Group 4704" clip-path="url(#clip-path-3)">
            <path id="Path_2820" data-name="Path 2820" d="M64.3,267.072,60.36,256.407l-7.426-134.19a1.681,1.681,0,0,1,1.588-1.775l.462-.025,7.48,135.176Z" transform="translate(-52.932 -120.257)" fill="rgba(0,0,0,0.7)" opacity="0.2"/>
          </g>
          <path id="Path_2822" data-name="Path 2822" d="M59.607,121.831l7.426,134.191L64.3,267.055,60.36,256.39,52.935,122.2a1.681,1.681,0,0,1,1.588-1.775l3.309-.183A1.681,1.681,0,0,1,59.607,121.831Z" transform="translate(-52.932 -120.24)" fill="none" stroke="#263238" stroke-linecap="round" stroke-linejoin="round" stroke-width="1"/>
        </g>
        <path id="Path_2823" data-name="Path 2823" d="M55.34,122.954l7.29,131.733a1.144,1.144,0,0,0,1.205,1.078l.795-.043" transform="translate(-53.16 -120.497)" stroke="#263238" stroke-linecap="round" stroke-linejoin="round" stroke-width="1" fill="url(#linear-gradient-3)"/>
      </g>
    </g>
    <g id="Group_4762" data-name="Group 4762" transform="translate(108.443 96.876)">
      <path id="Path_2824" data-name="Path 2824" d="M91.728,282.046l24.547-160.379a18.809,18.809,0,0,1,21.439-15.747L373.416,142a18.81,18.81,0,0,1,15.747,21.438l-24.548,160.38a18.81,18.81,0,0,1-21.438,15.748l-235.7-36.077A18.809,18.809,0,0,1,91.728,282.046Z" transform="translate(-88.793 -101.91)" fill="rgba(0,0,0,0.7)" opacity="0.2"/>
      <g id="Group_4761" data-name="Group 4761">
        <path id="Rectangle_2891" data-name="Rectangle 2891" d="M.989,0H13.127a.989.989,0,0,1,.989.989v5.1a0,0,0,0,1,0,0H0a0,0,0,0,1,0,0V.989A.989.989,0,0,1,.989,0Z" transform="matrix(0.151, -0.988, 0.988, 0.151, 21.713, 26.684)" fill="#f0de9f" stroke="#263238" stroke-linecap="round" stroke-linejoin="round" stroke-width="1"/>
        <path id="Rectangle_2892" data-name="Rectangle 2892" d="M.989,0H13.127a.989.989,0,0,1,.989.989v5.1a0,0,0,0,1,0,0H0a0,0,0,0,1,0,0V.989A.989.989,0,0,1,.989,0Z" transform="matrix(0.988, 0.151, -0.151, 0.988, 52.88, 0)" fill="#f0de9f" stroke="#263238" stroke-linecap="round" stroke-linejoin="round" stroke-width="1"/>
        <path id="Rectangle_2893" data-name="Rectangle 2893" d="M.989,0H13.127a.989.989,0,0,1,.989.989v5.1a0,0,0,0,1,0,0H0a0,0,0,0,1,0,0V.989A.989.989,0,0,1,.989,0Z" transform="translate(69.479 2.541) rotate(8.702)" fill="#f0de9f" stroke="#263238" stroke-linecap="round" stroke-linejoin="round" stroke-width="1"/>
        <path id="Path_2825" data-name="Path 2825" d="M88.728,278.046l24.547-160.379a18.809,18.809,0,0,1,21.439-15.747L370.416,138a18.81,18.81,0,0,1,15.747,21.438l-24.548,160.38a18.81,18.81,0,0,1-21.438,15.748l-235.7-36.077A18.809,18.809,0,0,1,88.728,278.046Z" transform="translate(-88.509 -101.532)" fill="#f0de9f" stroke="#263238" stroke-linecap="round" stroke-linejoin="round" stroke-width="1"/>
        <path id="Path_2826" data-name="Path 2826" d="M341.314,333.791,104.392,297.528a16.094,16.094,0,0,1-13.473-18.343l24.734-161.6A16.093,16.093,0,0,1,134,104.111l236.922,36.263a16.093,16.093,0,0,1,13.473,18.343l-24.735,161.6A16.093,16.093,0,0,1,341.314,333.791Z" transform="translate(-88.719 -101.742)" fill="#5e5e5e" stroke="#263238" stroke-linecap="round" stroke-linejoin="round" stroke-width="1"/>
        <path id="Path_2827" data-name="Path 2827" d="M108.8,208.81a.922.922,0,1,1-.772-1.051A.923.923,0,0,1,108.8,208.81Z" transform="translate(-90.254 -111.559)" fill="#292929" stroke="#292929" stroke-linecap="round" stroke-linejoin="round" stroke-width="1"/>
        <path id="Path_2828" data-name="Path 2828" d="M108.143,218.016A1.764,1.764,0,1,1,106.666,216,1.764,1.764,0,0,1,108.143,218.016Z" transform="translate(-90.034 -112.338)" fill="#292929"/>
        <path id="Path_2829" data-name="Path 2829" d="M111.573,195.606a1.764,1.764,0,1,1-1.477-2.011A1.763,1.763,0,0,1,111.573,195.606Z" transform="translate(-90.358 -110.219)" fill="#292929"/>
        <path id="Path_2830" data-name="Path 2830" d="M106.744,224.367a1.286,1.286,0,1,1-1.077-1.466A1.286,1.286,0,0,1,106.744,224.367Z" transform="translate(-89.991 -112.99)" fill="#292929"/>
        <path id="Path_2831" data-name="Path 2831" d="M379.076,156.56,353.787,321.823a7.952,7.952,0,0,1-9.054,6.655L146.249,298.1l-4.3-.661-16.18-2.481-7.832-1.2-11.318-1.729-2.472-.38A7.947,7.947,0,0,1,97.49,282.6l25.3-165.262a7.934,7.934,0,0,1,9.054-6.646l74.093,11.336,11.209,1.72,10.711,1.639,13.763,2.1,4.98.761,125.83,19.259A7.946,7.946,0,0,1,379.076,156.56Z" transform="translate(-89.349 -102.373)" fill="#1a1a1a"/>
        <g id="Group_4760" data-name="Group 4760" transform="translate(17.732 16.046)">
          <g id="Group_4731" data-name="Group 4731" transform="translate(0 106.487)">
            <g id="Group_4708" data-name="Group 4708" opacity="0.1">
              <path id="Path_2832" data-name="Path 2832" d="M194.034,308.506l-84.166-12.883a2.093,2.093,0,0,1-1.751-2.383l8.36-54.621a2.094,2.094,0,0,1,2.384-1.751l84.167,12.882a2.1,2.1,0,0,1,1.751,2.385l-8.36,54.621A2.094,2.094,0,0,1,194.034,308.506ZM118.75,237.588a1.364,1.364,0,0,0-1.552,1.141l-8.36,54.621a1.364,1.364,0,0,0,1.14,1.552l84.166,12.882a1.364,1.364,0,0,0,1.553-1.14l8.36-54.62a1.364,1.364,0,0,0-1.14-1.553Z" transform="translate(-108.092 -236.843)" fill="#fff"/>
            </g>
            <g id="Group_4709" data-name="Group 4709" transform="translate(13.138 11.622)">
              <path id="Path_2833" data-name="Path 2833" d="M147.9,272.847l18.851,10.691a22.241,22.241,0,0,0-1.393-23.514Z" transform="translate(-124.994 -250.657)" fill="#f0de9f" opacity="0.4"/>
              <path id="Path_2834" data-name="Path 2834" d="M148.1,271.027l16.845-12.373a22.2,22.2,0,0,0-8.721-6.891l-3.319,7.872Z" transform="translate(-125.013 -249.876)" fill="#f0de9f" opacity="0.6"/>
              <path id="Path_2835" data-name="Path 2835" d="M150.966,250.029l-2.917,19.063,7.5-17.775A22.256,22.256,0,0,0,150.966,250.029Z" transform="translate(-125.008 -249.712)" fill="#f0de9f"/>
              <path id="Path_2836" data-name="Path 2836" d="M144.508,271.646l3.33-21.761a22.225,22.225,0,0,0-23.806,29.858Z" transform="translate(-122.602 -249.679)" fill="#fff" opacity="0.1"/>
              <path id="Path_2837" data-name="Path 2837" d="M141.65,296.249a22.236,22.236,0,0,0,22.52-10.693l-19.185-10.88-20.513,8.112A22.223,22.223,0,0,0,141.65,296.249Z" transform="translate(-122.779 -252.042)" fill="#f0de9f" opacity="0.2"/>
            </g>
            <g id="Group_4730" data-name="Group 4730" transform="translate(61.737 20.279)">
              <g id="Group_4713" data-name="Group 4713" transform="translate(4.966)">
                <rect id="Rectangle_2894" data-name="Rectangle 2894" width="3.664" height="3.664" rx="0.626" transform="matrix(0.988, 0.151, -0.151, 0.988, 0.554, 0)" fill="#f0de9f"/>
                <g id="Group_4712" data-name="Group 4712" transform="translate(5.644 1.391)">
                  <g id="Group_4710" data-name="Group 4710" transform="translate(0.277)">
                    <path id="Path_2838" data-name="Path 2838" d="M199.569,263.284l-10.912-1.671a.421.421,0,0,1,.128-.832l10.912,1.671a.421.421,0,1,1-.128.832Z" transform="translate(-188.301 -260.777)" fill="#f0de9f"/>
                  </g>
                  <g id="Group_4711" data-name="Group 4711" transform="translate(0 1.811)">
                    <path id="Path_2839" data-name="Path 2839" d="M195.934,264.774l-7.582-1.161a.421.421,0,0,1,.128-.832l7.582,1.161a.421.421,0,0,1-.128.832Z" transform="translate(-187.995 -262.777)" fill="#f0de9f"/>
                  </g>
                </g>
              </g>
              <g id="Group_4717" data-name="Group 4717" transform="translate(3.725 8.112)">
                <rect id="Rectangle_2895" data-name="Rectangle 2895" width="3.664" height="3.664" rx="0.626" transform="translate(0.554) rotate(8.702)" fill="#f0de9f" opacity="0.6"/>
                <g id="Group_4716" data-name="Group 4716" transform="translate(5.645 1.391)">
                  <g id="Group_4714" data-name="Group 4714" transform="translate(0.277)">
                    <path id="Path_2840" data-name="Path 2840" d="M198.2,272.243l-10.912-1.671a.421.421,0,1,1,.128-.832l10.912,1.671a.421.421,0,0,1-.128.832Z" transform="translate(-186.93 -269.736)" fill="#f0de9f"/>
                  </g>
                  <g id="Group_4715" data-name="Group 4715" transform="translate(0 1.811)">
                    <path id="Path_2841" data-name="Path 2841" d="M194.563,273.733l-7.582-1.161a.421.421,0,0,1,.128-.832l7.582,1.161a.421.421,0,1,1-.128.832Z" transform="translate(-186.624 -271.736)" fill="#f0de9f"/>
                  </g>
                </g>
              </g>
              <g id="Group_4721" data-name="Group 4721" transform="translate(2.483 16.224)">
                <rect id="Rectangle_2896" data-name="Rectangle 2896" width="3.664" height="3.664" rx="0.626" transform="matrix(0.988, 0.151, -0.151, 0.988, 0.554, 0)" fill="#f0de9f" opacity="0.4"/>
                <g id="Group_4720" data-name="Group 4720" transform="translate(5.644 1.391)">
                  <g id="Group_4718" data-name="Group 4718" transform="translate(0.278)">
                    <path id="Path_2842" data-name="Path 2842" d="M196.827,281.2l-10.912-1.671a.421.421,0,0,1,.128-.832l10.912,1.671a.421.421,0,0,1-.128.832Z" transform="translate(-185.559 -278.695)" fill="#f0de9f"/>
                  </g>
                  <g id="Group_4719" data-name="Group 4719" transform="translate(0 1.811)">
                    <path id="Path_2843" data-name="Path 2843" d="M193.192,282.692l-7.582-1.16a.421.421,0,1,1,.127-.833l7.582,1.161a.421.421,0,1,1-.127.832Z" transform="translate(-185.252 -280.695)" fill="#f0de9f"/>
                  </g>
                </g>
              </g>
              <g id="Group_4725" data-name="Group 4725" transform="translate(1.242 24.336)">
                <rect id="Rectangle_2897" data-name="Rectangle 2897" width="3.664" height="3.664" rx="0.626" transform="translate(0.554 0) rotate(8.702)" fill="#f0de9f" opacity="0.2"/>
                <g id="Group_4724" data-name="Group 4724" transform="translate(5.644 1.391)">
                  <g id="Group_4722" data-name="Group 4722" transform="translate(0.277)">
                    <path id="Path_2844" data-name="Path 2844" d="M195.456,290.161l-10.912-1.671a.421.421,0,1,1,.127-.832l10.912,1.671a.421.421,0,1,1-.127.832Z" transform="translate(-184.187 -287.654)" fill="#f0de9f"/>
                  </g>
                  <g id="Group_4723" data-name="Group 4723" transform="translate(0 1.811)">
                    <path id="Path_2845" data-name="Path 2845" d="M191.821,291.651l-7.583-1.161a.421.421,0,0,1,.128-.832l7.582,1.161a.421.421,0,0,1-.127.832Z" transform="translate(-183.881 -289.654)" fill="#f0de9f"/>
                  </g>
                </g>
              </g>
              <g id="Group_4729" data-name="Group 4729" transform="translate(0 32.448)">
                <rect id="Rectangle_2898" data-name="Rectangle 2898" width="3.664" height="3.664" rx="0.626" transform="translate(0.554 0) rotate(8.702)" fill="#f0de9f" opacity="0.1"/>
                <g id="Group_4728" data-name="Group 4728" transform="translate(5.644 1.391)">
                  <g id="Group_4726" data-name="Group 4726" transform="translate(0.277)">
                    <path id="Path_2846" data-name="Path 2846" d="M194.084,299.12l-10.912-1.67a.421.421,0,0,1,.128-.833l10.912,1.671a.421.421,0,1,1-.128.832Z" transform="translate(-182.816 -296.613)" fill="#f0de9f"/>
                  </g>
                  <g id="Group_4727" data-name="Group 4727" transform="translate(0 1.811)">
                    <path id="Path_2847" data-name="Path 2847" d="M190.449,300.61l-7.582-1.16a.421.421,0,0,1,.128-.833l7.582,1.161a.421.421,0,0,1-.128.832Z" transform="translate(-182.51 -298.613)" fill="#f0de9f"/>
                  </g>
                </g>
              </g>
            </g>
          </g>
          <g id="Group_4732" data-name="Group 4732" transform="translate(96.926 121.322)" opacity="0.1">
            <path id="Path_2848" data-name="Path 2848" d="M362.744,274.2,225.91,253.251A2.092,2.092,0,0,0,223.524,255l-.577,3.766-.11.722-.777,5.08-.11.722-.777,5.071-.11.722-.776,5.071-.11.722-.778,5.08-.11.722-.776,5.071-.11.722-.776,5.071-.11.722-.778,5.08-.11.722-.776,5.071-.11.722-.577,3.766a2.1,2.1,0,0,0,1.754,2.388l136.834,20.944a2.093,2.093,0,0,0,2.38-1.755l.576-3.766.11-.722.777-5.072.11-.722.777-5.079.11-.722.777-5.071.11-.722.776-5.072.11-.722.777-5.079.11-.722.777-5.072.11-.721.776-5.072.11-.722.778-5.079.11-.722.576-3.766A2.087,2.087,0,0,0,362.744,274.2Zm-7.334,56.891a1.366,1.366,0,0,1-1.548,1.144L217.028,311.287a1.368,1.368,0,0,1-1.143-1.556l.577-3.766,139.525,21.356Zm.686-4.487L216.572,305.243l.776-5.071,139.525,21.355Zm.887-5.794L217.459,299.45l.777-5.08,139.525,21.356Zm.887-5.8L218.346,293.65l.777-5.072,139.525,21.356Zm.887-5.793L219.233,287.856l.776-5.071,139.525,21.355Zm.886-5.794L220.12,282.063l.778-5.08,139.525,21.356Zm.888-5.8L221.008,276.262l.776-5.071,139.525,21.355Zm.886-5.793L221.895,270.469l.776-5.072L362.2,286.752Zm.886-5.794L222.781,264.675l.778-5.08,139.525,21.356ZM223.669,258.874l.577-3.766a1.36,1.36,0,0,1,1.554-1.135l136.834,20.944a1.359,1.359,0,0,1,1.136,1.547l-.576,3.766Z" transform="translate(-215.139 -253.227)" fill="#fff"/>
          </g>
          <g id="Group_4735" data-name="Group 4735" transform="translate(10.161)">
            <g id="Group_4733" data-name="Group 4733" transform="translate(0 9.086)" opacity="0.1">
              <path id="Path_2849" data-name="Path 2849" d="M368.3,164.988,135.128,129.3a2.39,2.39,0,0,0-2.72,2l-13.066,85.362a2.39,2.39,0,0,0,2,2.72l233.176,35.689a2.388,2.388,0,0,0,2.719-2L370.3,167.707A2.388,2.388,0,0,0,368.3,164.988ZM178.124,177.262l16.219,2.483-1.41,9.207-16.219-2.482Zm-2.131,9.1-16.219-2.483,1.409-9.208,16.219,2.483Zm19.071-6.5,16.219,2.483-1.409,9.207-16.22-2.483Zm84.093,12.133-16.22-2.483,1.41-9.208,16.219,2.483Zm2.131-9.1,16.219,2.483-1.41,9.207L279.88,192.1Zm-52.342,2.15,16.219,2.483-1.41,9.208-16.219-2.483Zm-2.131,9.1-16.22-2.483,1.41-9.207,16.219,2.482Zm19.071-6.5,16.219,2.483-1.41,9.207-16.219-2.482Zm16.94,2.593,16.22,2.482-1.41,9.208-16.219-2.483Zm-.61-.832L246,186.913l1.409-9.207,16.219,2.482ZM245.276,186.8l-16.219-2.483,1.409-9.207,16.219,2.482Zm-16.941-2.592-16.219-2.483,1.409-9.208L229.744,175Zm-16.941-2.593-16.219-2.483,1.409-9.208,16.219,2.483Zm-1.63,10.65-1.41,9.208-16.219-2.483,1.409-9.208Zm.722.11,16.219,2.483-1.41,9.207-16.219-2.482Zm16.94,2.593,16.219,2.482-1.409,9.207-16.219-2.483Zm16.941,2.592,16.219,2.483-1.409,9.207-16.219-2.483Zm16.941,2.593,16.219,2.483-1.409,9.207L259.9,209.363Zm16.941,2.593,16.219,2.483-1.41,9.207-16.218-2.482Zm.11-.722,1.41-9.208,16.218,2.483-1.409,9.208Zm18.35-6.614,16.219,2.483L311.52,207.1,295.3,204.621Zm16.941,2.593,16.219,2.483-1.409,9.207-16.219-2.483Zm.11-.722,1.41-9.207,16.218,2.483-1.409,9.207Zm-.722-.11-16.219-2.483,1.409-9.207,16.22,2.482Zm-14.7-12.411,1.41-9.207,16.219,2.482-1.409,9.208Zm-.721-.11L281.4,182.17l1.409-9.207,16.219,2.483Zm-16.941-2.593-16.219-2.483,1.409-9.207,16.219,2.483Zm-16.941-2.593-16.219-2.482,1.409-9.207,16.219,2.483ZM246.8,176.874l-16.219-2.483,1.409-9.207,16.219,2.482Zm-16.941-2.593L213.635,171.8l1.41-9.207,16.219,2.483Zm-16.941-2.593-16.219-2.482L198.1,160l16.22,2.483Zm-16.941-2.593-16.219-2.482,1.409-9.207,16.22,2.483Zm-.11.722-1.409,9.207-16.219-2.483,1.409-9.207Zm-18.35,6.614-16.219-2.482,1.409-9.207,16.219,2.483Zm-16.941-2.592-16.219-2.483,1.41-9.208,16.219,2.483Zm-.11.721-1.409,9.208-16.219-2.483,1.409-9.207Zm-1.519,9.929-1.41,9.207-16.219-2.482,1.41-9.208Zm.722.11,16.219,2.483-1.41,9.207L158.254,193.8Zm16.94,2.592,16.219,2.483-1.409,9.207L175.195,196.4ZM191.3,199.6l-1.409,9.207-16.219-2.482,1.409-9.207Zm.722.11,16.219,2.482-1.409,9.208-16.219-2.483Zm16.941,2.592,16.219,2.483L223.777,214l-16.219-2.483Zm16.941,2.593,16.219,2.483-1.409,9.208L224.5,214.106Zm16.941,2.593,16.219,2.483-1.41,9.207L241.438,216.7Zm16.941,2.593,16.219,2.482-1.409,9.208-16.22-2.483Zm16.941,2.592,16.219,2.483-1.41,9.208-16.219-2.483Zm16.94,2.593,16.22,2.483-1.41,9.208-16.219-2.483Zm.11-.722,1.41-9.207,16.219,2.483L310,217.032Zm18.351-6.614,16.219,2.483-1.41,9.207-16.218-2.483Zm16.94,2.593,16.22,2.483-1.41,9.207-16.219-2.482Zm.11-.722,1.41-9.208,16.219,2.483-1.409,9.207Zm1.52-9.928,1.409-9.208,16.22,2.483-1.41,9.207Zm1.519-9.929,1.409-9.207,16.22,2.483-1.41,9.207Zm-.722-.11-16.218-2.482,1.409-9.207,16.219,2.483Zm-14.7-12.41,1.409-9.208,16.219,2.482-1.409,9.207Zm-.722-.111-16.219-2.482,1.409-9.208,16.22,2.483Zm-16.941-2.592-16.219-2.483,1.41-9.208,16.218,2.483ZM282.2,172.131l-16.219-2.483,1.409-9.207,16.22,2.483Zm-16.941-2.593-16.219-2.482,1.41-9.208,16.219,2.483Zm-16.941-2.592L232.1,164.463l1.41-9.208,16.219,2.483Zm-16.94-2.593-16.219-2.483,1.409-9.208,16.219,2.483Zm-16.941-2.593-16.22-2.483,1.41-9.207,16.219,2.483Zm-16.942-2.593-16.219-2.482,1.41-9.208L198.9,149.96Zm-16.94-2.592-16.219-2.483,1.409-9.208,16.219,2.483Zm-.11.721-1.41,9.208-16.219-2.483,1.41-9.207Zm-18.351,6.614-16.219-2.483,1.41-9.207L163.5,154.7Zm-16.94-2.593-16.219-2.482,1.409-9.208,16.219,2.483Zm-.11.722-1.41,9.208-16.219-2.483,1.41-9.208Zm-1.52,9.929-1.409,9.207-16.219-2.482,1.409-9.208ZM142,181.895l-1.409,9.208-16.219-2.483,1.409-9.208Zm-1.519,9.929-1.41,9.207-16.219-2.482,1.41-9.208Zm.721.11,16.219,2.483-1.409,9.208-16.219-2.483Zm16.941,2.593,16.219,2.483-1.409,9.208-16.219-2.483Zm14.7,12.411-1.409,9.208-16.22-2.483,1.41-9.207Zm.722.11,16.219,2.483-1.41,9.207-16.219-2.483Zm16.941,2.593,16.219,2.483-1.409,9.208-16.22-2.483Zm16.941,2.593,16.219,2.483-1.41,9.207-16.219-2.482Zm16.941,2.593,16.219,2.482-1.41,9.207-16.219-2.483Zm16.94,2.592,16.219,2.483-1.409,9.207-16.219-2.483Zm16.941,2.593,16.22,2.483-1.41,9.207-16.219-2.483Zm16.942,2.593,16.218,2.483L290.02,234.3,273.8,231.813Zm16.94,2.593,16.219,2.482-1.409,9.208-16.219-2.483Zm16.941,2.592,16.219,2.483-1.41,9.208L307.683,237Zm.11-.722,1.41-9.207,16.218,2.482-1.409,9.207Zm18.35-6.614,16.219,2.483-1.409,9.208-16.219-2.483Zm16.941,2.593,16.219,2.483-1.41,9.207-16.218-2.482Zm.11-.722,1.41-9.207,16.218,2.482-1.409,9.208Zm1.52-9.928,1.409-9.208,16.219,2.483-1.41,9.208Zm1.519-9.929,1.409-9.207,16.219,2.483-1.409,9.207Zm1.519-9.928,1.41-9.207,16.218,2.482-1.409,9.208Zm1.52-9.928,1.409-9.208,16.219,2.483L366.9,185.1Zm-.722-.11-16.22-2.483,1.41-9.208L351.37,173.3Zm-14.7-12.411,1.409-9.207,16.22,2.483-1.41,9.207Zm-.722-.11L318.32,167.5l1.41-9.207,16.218,2.483ZM317.6,167.389l-16.219-2.483,1.409-9.207,16.22,2.482ZM300.657,164.8l-16.218-2.482,1.409-9.208,16.219,2.483Zm-16.94-2.592L267.5,159.72l1.41-9.208L285.126,153Zm-16.941-2.593-16.219-2.483,1.409-9.207,16.219,2.482Zm-16.941-2.593-16.219-2.483,1.409-9.207,16.219,2.483Zm-16.941-2.592-16.219-2.483,1.409-9.208,16.219,2.483Zm-16.941-2.593-16.219-2.483,1.409-9.208,16.219,2.483Zm-16.941-2.593-16.219-2.483,1.409-9.207,16.219,2.482Zm-16.941-2.593-16.219-2.483,1.409-9.207,16.219,2.483Zm-16.941-2.592-16.219-2.483,1.41-9.208,16.219,2.483Zm-.11.721-1.409,9.208L147.392,151.5l1.409-9.207Zm-18.35,6.614-16.219-2.482,1.409-9.207,16.219,2.483Zm-23.928,47.882,16.219,2.483-1.409,9.208-16.219-2.483Zm16.941,2.593,16.219,2.483-1.409,9.207-16.219-2.482Zm14.7,12.411-1.41,9.208L136.754,221l1.41-9.207Zm.722.11,16.219,2.483-1.41,9.207-16.219-2.483Zm16.94,2.593,16.219,2.483-1.409,9.207-16.219-2.483Zm16.941,2.593,16.22,2.482-1.41,9.208-16.219-2.483Zm16.941,2.592,16.219,2.483-1.409,9.207-16.219-2.482Zm16.941,2.593,16.219,2.483-1.409,9.207-16.219-2.483Zm16.941,2.593,16.219,2.483-1.409,9.207L238.4,236.556Zm16.941,2.592,16.219,2.483-1.409,9.208-16.219-2.483Zm16.941,2.593,16.219,2.483-1.41,9.207-16.218-2.482Zm16.941,2.593,16.219,2.483-1.409,9.207-16.22-2.483Zm16.941,2.593L323.79,240.2l-1.409,9.207-16.218-2.483Zm16.94,2.592,16.22,2.483L339.323,252,323.1,249.521Zm.11-.722,1.41-9.207,16.219,2.483-1.409,9.207Zm18.351-6.613,16.219,2.482-1.41,9.207-16.219-2.483ZM369.579,167.6l-1.158,7.57L352.2,172.684l1.409-9.207,14.582,2.232A1.657,1.657,0,0,1,369.579,167.6ZM135.017,130.02l14.582,2.232-1.41,9.208-16.219-2.483,1.159-7.57A1.659,1.659,0,0,1,135.017,130.02Zm-14.953,86.748,1.159-7.57,16.219,2.483-1.409,9.207-14.583-2.232A1.659,1.659,0,0,1,120.064,216.768Zm234.563,37.577-14.582-2.232,1.41-9.207,16.218,2.483-1.158,7.57A1.658,1.658,0,0,1,354.626,254.345Z" transform="translate(-119.315 -129.271)" fill="#fff"/>
            </g>
            <g id="Group_4734" data-name="Group 4734" transform="translate(0.733 43.591)">
              <path id="Path_2850" data-name="Path 2850" d="M360.676,229.857,356.59,256.55a1.584,1.584,0,0,1-1.812,1.326L121.47,222.166a1.583,1.583,0,0,1-1.326-1.805l.547-3.571s10.966-8.836,17.827-7.786c8.109,1.241,9.546,5.839,16.761,6.944s15.179-15.663,21.715-14.663c3.536.541,4.44,3.264,6.178,5.76a9.359,9.359,0,0,0,6.7,4.223c.085.02.179.034.265.048,8.874,1.358,20.884-45.75,33.091-43.882,5.4.826,7.578,11.223,9.2,22.7,2.054,14.506,3.217,30.744,8.873,31.609,10.122,1.549,13.56-18.983,22.976-17.541,5.915.905,8.07,11.868,13.048,20.545,2.942,5.139,6.885,9.479,13.191,10.444,5.728.876,9.558-.457,12.536-2.549,5.837-4.083,8.448-11.052,15.749-9.935,4.321.661,5.9,4,7.509,7.138,1.4,2.747,2.837,5.344,6.171,5.854,3.917.6,7.257-5.01,10.8-9.991,2.908-4.1,5.943-7.767,9.551-7.215,3.687.564,5.86,4.988,6.957,8.145A26.938,26.938,0,0,1,360.676,229.857Z" transform="translate(-120.125 -167.379)" fill="#f0de9f" opacity="0.5"/>
              <path id="Path_2851" data-name="Path 2851" d="M366.29,195.306l-9.7,63.373A1.584,1.584,0,0,1,354.778,260L121.47,224.295a1.583,1.583,0,0,1-1.326-1.805l.547-3.571c9.689,1.483,14.86-5.767,21.36-4.772s9.867,5.534,15.956,6.466,15.468-13.307,22.127-12.289a12.883,12.883,0,0,1,3.038.849c2.561,1.071,4.327,2.8,6.7,4.223a16.2,16.2,0,0,0,6.1,2.188c7.8,1.194,23.4-27.023,32.44-25.64a6.811,6.811,0,0,1,4.016,2.32c5.34,5.824,6.716,20.381,14.255,21.535,9.133,1.4,14.022-13.463,22.882-12.108s11.477,16.628,21.751,18.2,21.389-26.472,32.045-24.841,13.7,16.035,22.965,17.453C356.468,214.056,366.29,195.306,366.29,195.306Z" transform="translate(-120.125 -169.508)" fill="#f0de9f" opacity="0.5"/>
              <path id="Path_2852" data-name="Path 2852" d="M361.78,227.5,356.59,261.4a1.584,1.584,0,0,1-1.812,1.326L121.47,227.02a1.583,1.583,0,0,1-1.326-1.805l.267-1.746c.338-.325,5.827-5.51,11.411-4.656,5.765.883,5.779,6.047,13.823,7.277s10.385-5.129,21.8-3.383,11.367,9.722,23.163,11.527,14.234-7.752,22.61-6.47,7.82,6.166,12.575,6.894,7.537-6.74,13.4-5.843S249.523,241.99,256.124,243c4.639.71,12.837-8.469,21.2-13.4,3.538-2.08,7.107-3.4,10.447-2.89,6.89,1.055,10.911,6.432,15.28,10.786,2.748,2.739,5.64,5.072,9.464,5.657,5.462.836,9.607-4.1,13.795-8.454,3.407-3.54,6.835-6.692,11.013-6.053a17.039,17.039,0,0,1,5.953,1.916c3.6,2.027,4.573,4.761,8.909,5.425C357.41,236.787,361.78,227.5,361.78,227.5Z" transform="translate(-120.125 -172.233)" fill="#f0de9f"/>
            </g>
            <path id="Path_2853" data-name="Path 2853" d="M150.542,125.593l-12.527-1.917a2.232,2.232,0,0,1-1.869-2.545h0a2.232,2.232,0,0,1,2.544-1.869l12.527,1.917a2.233,2.233,0,0,1,1.869,2.545h0A2.232,2.232,0,0,1,150.542,125.593Z" transform="translate(-120.904 -119.236)" fill="#f0de9f"/>
            <g id="Path_2854" data-name="Path 2854" transform="translate(-122.899 -119.542)" fill="none" stroke-miterlimit="10">
              <path d="M171.647,128.824l-12.527-1.918a2.232,2.232,0,0,1-1.869-2.544h0a2.232,2.232,0,0,1,2.544-1.87l12.527,1.918a2.232,2.232,0,0,1,1.869,2.544h0A2.233,2.233,0,0,1,171.647,128.824Z" stroke="none"/>
              <path d="M 171.9872589111328 127.8500671386719 C 172.5888977050781 127.8500671386719 173.1114654541016 127.3999481201172 173.2029266357422 126.8023376464844 C 173.2528991699219 126.4773483276367 173.1731414794922 126.1523513793945 172.9783325195313 125.88720703125 C 172.7834014892578 125.6218948364258 172.4967498779297 125.4483413696289 172.1711578369141 125.3985061645508 L 159.6443176269531 123.4807815551758 C 159.5814361572266 123.4711608886719 159.5177764892578 123.4662780761719 159.455078125 123.4662780761719 C 158.853515625 123.4662780761719 158.3310546875 123.9163589477539 158.2397766113281 124.5133056640625 C 158.1369781494141 125.1849899291992 158.5997619628906 125.815071105957 159.2714538574219 125.9178695678711 L 171.7982940673828 127.8355865478516 C 171.8610534667969 127.8451995849609 171.9246368408203 127.8500671386719 171.9872589111328 127.8500671386719 M 171.9872589111328 128.8500671386719 C 171.8749847412109 128.8500671386719 171.7613983154297 128.8415832519531 171.6470031738281 128.8240814208984 L 159.1201171875 126.9063491821289 C 157.9013977050781 126.7198257446289 157.0647583007813 125.5807647705078 157.2512817382813 124.3620300292969 C 157.4202728271484 123.2569580078125 158.3713684082031 122.4662780761719 159.455078125 122.4662780761719 C 159.5674285888672 122.4662780761719 159.6811065673828 122.4747695922852 159.7955932617188 122.4922866821289 L 172.3224792480469 124.410026550293 C 173.5411987304688 124.596549987793 174.3787231445313 125.7356109619141 174.1913146972656 126.9543304443359 C 174.0222930908203 128.0586547851563 173.0710601806641 128.8500671386719 171.9872589111328 128.8500671386719 Z" stroke="none" fill="#f0de9f"/>
            </g>
            <g id="Path_2855" data-name="Path 2855" transform="translate(-124.895 -119.847)" fill="none" stroke-miterlimit="10">
              <path d="M192.752,132.054l-12.527-1.918a2.232,2.232,0,0,1-1.869-2.544h0a2.233,2.233,0,0,1,2.544-1.87l12.527,1.918a2.233,2.233,0,0,1,1.87,2.545h0A2.233,2.233,0,0,1,192.752,132.054Z" stroke="none"/>
              <path d="M 193.0925750732422 131.080078125 C 193.6946258544922 131.080078125 194.2174530029297 130.6303558349609 194.3087005615234 130.0340728759766 C 194.4114990234375 129.3619079589844 193.9483184814453 128.7313842773438 193.2761383056641 128.6285095214844 L 180.7493286132813 126.7107772827148 C 180.6865386962891 126.7011642456055 180.6229553222656 126.6962966918945 180.5603485107422 126.6962966918945 C 179.9587097167969 126.6962966918945 179.4361267089844 127.1464233398438 179.3447723388672 127.7433319091797 C 179.2419738769531 128.4149932861328 179.7047729492188 129.0450592041016 180.37646484375 129.1478729248047 L 192.9032745361328 131.0655822753906 C 192.9661560058594 131.0752105712891 193.0298461914063 131.080078125 193.0925750732422 131.080078125 M 193.0925750732422 132.080078125 C 192.9802093505859 132.080078125 192.8664855957031 132.0715942382813 192.7519989013672 132.0540771484375 L 180.2251281738281 130.1363525390625 C 179.0063934326172 129.9498138427734 178.1697540283203 128.8107604980469 178.3562774658203 127.592041015625 C 178.5252990722656 126.4877090454102 179.4765319824219 125.6962966918945 180.5603485107422 125.6962966918945 C 180.6726379394531 125.6962966918945 180.7861938476563 125.7047729492188 180.9006042480469 125.722282409668 L 193.4274597167969 127.6400299072266 C 194.6462097167969 127.826545715332 195.4837341308594 128.9656066894531 195.2972106933594 130.1852416992188 C 195.1282196044922 131.2894897460938 194.1764221191406 132.080078125 193.0925750732422 132.080078125 Z" stroke="none" fill="#f0de9f"/>
            </g>
            <path id="Path_2856" data-name="Path 2856" d="M395.7,161.028l.149-.979-.723-.175a2.02,2.02,0,0,0-.114-.466l.559-.49-.586-.8-.634.387a2.033,2.033,0,0,0-.412-.248l.05-.742-.979-.149-.175.723a2.038,2.038,0,0,0-.467.114l-.489-.559-.8.586.387.634a2.032,2.032,0,0,0-.248.412l-.742-.049-.149.978.723.175a2.037,2.037,0,0,0,.114.467l-.559.49.586.8.634-.387a2.033,2.033,0,0,0,.412.248l-.05.742.979.149.175-.723a2.037,2.037,0,0,0,.467-.114l.49.559.8-.585-.387-.635a2.034,2.034,0,0,0,.248-.412Zm-2.785.236a1.15,1.15,0,1,1,1.311-.962A1.15,1.15,0,0,1,392.918,161.264Z" transform="translate(-144.94 -122.842)" fill="#f0de9f"/>
          </g>
          <g id="Group_4759" data-name="Group 4759" transform="translate(102.316 142.242)">
            <g id="Group_4736" data-name="Group 4736" transform="translate(12.17 3.281)">
              <rect id="Rectangle_2899" data-name="Rectangle 2899" width="2.695" height="19.38" transform="translate(2.932 0) rotate(8.702)" fill="#f0de9f" opacity="0.2"/>
              <rect id="Rectangle_2900" data-name="Rectangle 2900" width="2.695" height="9.122" transform="translate(2.49 2.886) rotate(8.702)" fill="#f0de9f"/>
            </g>
            <g id="Group_4737" data-name="Group 4737" transform="translate(5.434 7.198)">
              <rect id="Rectangle_2901" data-name="Rectangle 2901" width="2.695" height="19.38" transform="matrix(0.988, 0.151, -0.151, 0.988, 2.932, 0)" fill="#f0de9f" opacity="0.2"/>
              <rect id="Rectangle_2902" data-name="Rectangle 2902" width="9.122" height="2.695" transform="translate(0.779 14.068) rotate(-81.298)" fill="#f0de9f"/>
            </g>
            <g id="Group_4738" data-name="Group 4738" transform="translate(0 2.605)">
              <rect id="Rectangle_2903" data-name="Rectangle 2903" width="2.695" height="19.38" transform="translate(2.932 0) rotate(8.702)" fill="#f0de9f" opacity="0.2"/>
              <rect id="Rectangle_2904" data-name="Rectangle 2904" width="2.695" height="9.122" transform="matrix(0.988, 0.151, -0.151, 0.988, 1.828, 7.215)" fill="#f0de9f"/>
            </g>
            <g id="Group_4739" data-name="Group 4739" transform="translate(17.587 7.983)">
              <rect id="Rectangle_2905" data-name="Rectangle 2905" width="2.695" height="19.38" transform="matrix(0.988, 0.151, -0.151, 0.988, 2.932, 0)" fill="#f0de9f" opacity="0.2"/>
              <rect id="Rectangle_2906" data-name="Rectangle 2906" width="2.695" height="9.122" transform="matrix(0.988, 0.151, -0.151, 0.988, 2.49, 2.886)" fill="#f0de9f"/>
            </g>
            <g id="Group_4740" data-name="Group 4740" transform="translate(24.451 3.234)">
              <rect id="Rectangle_2907" data-name="Rectangle 2907" width="2.695" height="19.38" transform="matrix(0.988, 0.151, -0.151, 0.988, 2.932, 0)" fill="#f0de9f" opacity="0.2"/>
              <rect id="Rectangle_2908" data-name="Rectangle 2908" width="2.695" height="9.122" transform="matrix(0.988, 0.151, -0.151, 0.988, 2.601, 2.164)" fill="#f0de9f"/>
            </g>
            <g id="Group_4741" data-name="Group 4741" transform="translate(29.69 9.098)">
              <rect id="Rectangle_2909" data-name="Rectangle 2909" width="2.695" height="19.38" transform="translate(2.932) rotate(8.702)" fill="#f0de9f" opacity="0.2"/>
              <rect id="Rectangle_2910" data-name="Rectangle 2910" width="2.695" height="9.122" transform="matrix(0.988, 0.151, -0.151, 0.988, 2.822, 0.721)" fill="#f0de9f"/>
            </g>
            <g id="Group_4742" data-name="Group 4742" transform="translate(37.219)">
              <rect id="Rectangle_2911" data-name="Rectangle 2911" width="2.695" height="19.38" transform="translate(2.932) rotate(8.702)" fill="#f0de9f" opacity="0.2"/>
              <rect id="Rectangle_2912" data-name="Rectangle 2912" width="2.695" height="9.122" transform="matrix(0.988, 0.151, -0.151, 0.988, 2.822, 0.721)" fill="#f0de9f"/>
            </g>
            <g id="Group_4743" data-name="Group 4743" transform="translate(41.369 12.981)">
              <rect id="Rectangle_2913" data-name="Rectangle 2913" width="2.695" height="19.38" transform="matrix(0.988, 0.151, -0.151, 0.988, 2.932, 0)" fill="#f0de9f" opacity="0.2"/>
              <rect id="Rectangle_2914" data-name="Rectangle 2914" width="2.695" height="9.122" transform="translate(2.49 2.886) rotate(8.702)" fill="#f0de9f"/>
            </g>
            <g id="Group_4744" data-name="Group 4744" transform="translate(47.194 15.017)">
              <rect id="Rectangle_2915" data-name="Rectangle 2915" width="2.695" height="19.38" transform="matrix(0.988, 0.151, -0.151, 0.988, 2.932, 0)" fill="#f0de9f" opacity="0.2"/>
              <rect id="Rectangle_2916" data-name="Rectangle 2916" width="2.695" height="9.122" transform="translate(1.828 7.215) rotate(8.702)" fill="#f0de9f"/>
            </g>
            <g id="Group_4745" data-name="Group 4745" transform="translate(55.031 3.912)">
              <rect id="Rectangle_2917" data-name="Rectangle 2917" width="2.695" height="19.38" transform="matrix(0.988, 0.151, -0.151, 0.988, 2.933, 0)" fill="#f0de9f" opacity="0.2"/>
              <rect id="Rectangle_2918" data-name="Rectangle 2918" width="2.695" height="9.122" transform="matrix(0.988, 0.151, -0.151, 0.988, 1.718, 7.936)" fill="#f0de9f"/>
            </g>
            <g id="Group_4746" data-name="Group 4746" transform="translate(59.738 13.249)">
              <rect id="Rectangle_2919" data-name="Rectangle 2919" width="2.695" height="19.38" transform="matrix(0.988, 0.151, -0.151, 0.988, 2.932, 0)" fill="#f0de9f" opacity="0.2"/>
              <rect id="Rectangle_2920" data-name="Rectangle 2920" width="2.695" height="9.122" transform="translate(2.38 3.607) rotate(8.702)" fill="#f0de9f"/>
            </g>
            <g id="Group_4747" data-name="Group 4747" transform="translate(66.5 9.169)">
              <rect id="Rectangle_2921" data-name="Rectangle 2921" width="2.695" height="19.38" transform="translate(2.932 0) rotate(8.702)" fill="#f0de9f" opacity="0.2"/>
              <rect id="Rectangle_2922" data-name="Rectangle 2922" width="2.695" height="9.122" transform="translate(2.49 2.886) rotate(8.702)" fill="#f0de9f"/>
            </g>
            <g id="Group_4748" data-name="Group 4748" transform="translate(73.812 1.486)">
              <rect id="Rectangle_2923" data-name="Rectangle 2923" width="2.695" height="19.38" transform="translate(2.932) rotate(8.702)" fill="#f0de9f" opacity="0.2"/>
              <rect id="Rectangle_2924" data-name="Rectangle 2924" width="2.695" height="9.122" transform="matrix(0.988, 0.151, -0.151, 0.988, 2.932, 0)" fill="#f0de9f"/>
            </g>
            <g id="Group_4749" data-name="Group 4749" transform="translate(77.951 14.536)">
              <rect id="Rectangle_2925" data-name="Rectangle 2925" width="2.695" height="19.38" transform="matrix(0.988, 0.151, -0.151, 0.988, 2.933, 0)" fill="#f0de9f" opacity="0.2"/>
              <rect id="Rectangle_2926" data-name="Rectangle 2926" width="2.695" height="9.122" transform="matrix(0.988, 0.151, -0.151, 0.988, 2.601, 2.164)" fill="#f0de9f"/>
            </g>
            <g id="Group_4750" data-name="Group 4750" transform="translate(82.66 23.872)">
              <rect id="Rectangle_2927" data-name="Rectangle 2927" width="2.695" height="19.38" transform="translate(2.932 0) rotate(8.702)" fill="#f0de9f" opacity="0.2"/>
              <rect id="Rectangle_2928" data-name="Rectangle 2928" width="2.695" height="9.122" transform="matrix(0.988, 0.151, -0.151, 0.988, 2.601, 2.164)" fill="#f0de9f"/>
            </g>
            <g id="Group_4751" data-name="Group 4751" transform="translate(90.208 14.651)">
              <rect id="Rectangle_2929" data-name="Rectangle 2929" width="2.695" height="19.38" transform="matrix(0.988, 0.151, -0.151, 0.988, 2.932, 0)" fill="#f0de9f" opacity="0.2"/>
              <rect id="Rectangle_2930" data-name="Rectangle 2930" width="2.695" height="9.122" transform="translate(1.828 7.215) rotate(8.704)" fill="#f0de9f"/>
            </g>
            <g id="Group_4752" data-name="Group 4752" transform="translate(97.861 4.741)">
              <rect id="Rectangle_2931" data-name="Rectangle 2931" width="2.695" height="19.38" transform="matrix(0.988, 0.151, -0.151, 0.988, 2.932, 0)" fill="#f0de9f" opacity="0.2"/>
              <rect id="Rectangle_2932" data-name="Rectangle 2932" width="2.695" height="9.122" transform="matrix(0.988, 0.151, -0.151, 0.988, 1.607, 8.658)" fill="#f0de9f"/>
            </g>
            <g id="Group_4753" data-name="Group 4753" transform="translate(102.2 16.487)">
              <rect id="Rectangle_2933" data-name="Rectangle 2933" width="2.695" height="19.38" transform="translate(2.932) rotate(8.702)" fill="#f0de9f" opacity="0.2"/>
              <rect id="Rectangle_2934" data-name="Rectangle 2934" width="2.695" height="9.122" transform="translate(2.491 2.886) rotate(8.704)" fill="#f0de9f"/>
            </g>
            <g id="Group_4754" data-name="Group 4754" transform="translate(107.709 20.592)">
              <rect id="Rectangle_2935" data-name="Rectangle 2935" width="2.695" height="19.38" transform="translate(2.932 0) rotate(8.702)" fill="#f0de9f" opacity="0.2"/>
              <rect id="Rectangle_2936" data-name="Rectangle 2936" width="2.695" height="9.122" transform="matrix(0.988, 0.151, -0.151, 0.988, 1.717, 7.936)" fill="#f0de9f"/>
            </g>
            <g id="Group_4755" data-name="Group 4755" transform="translate(114.619 15.534)">
              <rect id="Rectangle_2937" data-name="Rectangle 2937" width="2.695" height="19.38" transform="matrix(0.988, 0.151, -0.151, 0.988, 2.932, 0)" fill="#f0de9f" opacity="0.2"/>
              <rect id="Rectangle_2938" data-name="Rectangle 2938" width="2.695" height="9.122" transform="translate(2.932 0) rotate(8.702)" fill="#f0de9f"/>
            </g>
            <g id="Group_4756" data-name="Group 4756" transform="translate(119.701 22.427)">
              <rect id="Rectangle_2939" data-name="Rectangle 2939" width="2.695" height="19.38" transform="translate(2.932) rotate(8.702)" fill="#f0de9f" opacity="0.2"/>
              <rect id="Rectangle_2940" data-name="Rectangle 2940" width="2.695" height="9.122" transform="translate(2.711 1.443) rotate(8.702)" fill="#f0de9f"/>
            </g>
            <g id="Group_4757" data-name="Group 4757" transform="translate(126.093 20.761)">
              <rect id="Rectangle_2941" data-name="Rectangle 2941" width="2.695" height="19.38" transform="matrix(0.988, 0.151, -0.151, 0.988, 2.932, 0)" fill="#f0de9f" opacity="0.2"/>
              <rect id="Rectangle_2942" data-name="Rectangle 2942" width="2.695" height="9.122" transform="translate(2.822 0.721) rotate(8.702)" fill="#f0de9f"/>
            </g>
            <g id="Group_4758" data-name="Group 4758" transform="translate(131.713 24.139)">
              <rect id="Rectangle_2943" data-name="Rectangle 2943" width="2.695" height="19.38" transform="translate(2.932) rotate(8.702)" fill="#f0de9f" opacity="0.2"/>
              <rect id="Rectangle_2944" data-name="Rectangle 2944" width="2.695" height="9.122" transform="translate(1.497 9.379) rotate(8.704)" fill="#f0de9f"/>
            </g>
          </g>
        </g>
        <rect id="Rectangle_2945" data-name="Rectangle 2945" width="50.818" height="1.572" transform="matrix(0.988, 0.151, -0.151, 0.988, 110.292, 201.748)" fill="#999" stroke="#263238" stroke-linecap="round" stroke-linejoin="round" stroke-width="1"/>
      </g>
    </g>
    <g id="Group_4765" data-name="Group 4765" transform="translate(293.731 181.016)">
      <path id="Path_2857" data-name="Path 2857" d="M300.34,211.88s-6.809,3.773-2.476,14.01,30.715,27.048,30.18,35.6c0,0-27.078-16.878-34.6-7.133,0,0,20.457,19.836,22.578,34.764s9.085,21.537,25.067,30.049S391.9,372.608,391.9,372.608l-5.206-75.426L336,239.957l-25.067-14.283Z" transform="translate(-293.174 -196.089)" fill="rgba(0,0,0,0.7)" opacity="0.2"/>
      <g id="Group_4764" data-name="Group 4764">
        <path id="Path_2858" data-name="Path 2858" d="M437.895,346.249s-44.639,29.318-44.648,29.318a.189.189,0,0,1-.263-.118c-.2-.525-19.947-53.231-24.673-57.342a19.42,19.42,0,0,1-5.632-9c0-.009-.009-.009-.009-.018s-.009-.045-.018-.072c-.172-.579-.254-.96-.272-1.059a32.825,32.825,0,0,0-11.653-13.093,60.833,60.833,0,0,0-10.539-5.071c-5.614-2.273-11.391-4.618-15.474-8.955a18.966,18.966,0,0,1-1.91-2.381c-6.492-9.507-16.515-20-19.856-22.156-3.468-2.245-9.462-1.865-9.516-1.856a.2.2,0,0,1-.217-.163,5.691,5.691,0,0,1,1.467-4.609,9.1,9.1,0,0,1,6.909-3.169c5.161,0,12.269,2.744,15.854,6.13,3.5,3.3,11.879,5.922,12.83,6.211,1.349-.8,4.491.915,5.7,1.639-1.385-4.935-.824-6.836-.607-7.316-2.97-3.848-18.435-15.239-26.647-20.952h-.009c-2.264-1.585-3.966-2.725-4.708-3.16-3.83-2.255-7-9.308-6.383-14.234a4.544,4.544,0,0,1,1.82-3.423,4.363,4.363,0,0,1,2.581-.661,5.668,5.668,0,0,1,1.1.136.374.374,0,0,1,.1.063c.072.1,7.76,9.217,10.422,10.648,1.3.7,8.24,4.2,14.831,7.461,1.005.5,2,1,2.97,1.467a73.061,73.061,0,0,1,.453-8.593c.254-1.123,2.046-2.725,4.084-3.658.951-.435,2.743-1.059,4.011-.371.5.281,1.675,1.005,3.3,2.019.8.489,1.72,1.068,2.734,1.684a10.574,10.574,0,0,1,2.1-2.363c.679-.4,4.437-1.1,5.777-.625a94.236,94.236,0,0,1,8.882,5.324c.561.353,1.132.715,1.711,1.077.208-.389.7-1.2,1.159-1.385a10.343,10.343,0,0,1,6.112-.326c1.34.489,5.94,3.884,10.395,7.171,2.445,1.811,4.79,3.54,6.329,4.582a.22.22,0,0,1,.127.091c.444.3.815.534,1.1.7,3.278,1.874,11.336,44.141,11.418,44.566.525,2.834,2.445,5.759,4.473,8.855a46.819,46.819,0,0,1,5.578,10.4c2.581,7.542,8.457,18.58,17.068,32.071q1.168,1.834,2.409,3.721C432.978,339.023,435.459,342.7,437.895,346.249Z" transform="translate(-293.146 -195.981)" fill="#fff"/>
        <path id="Path_2859" data-name="Path 2859" d="M338.413,265.32c-1.729,1.367-14.279.072-15.818,4.292-.905,2.49-.235,6.257,2.119,11.228a18.966,18.966,0,0,1-1.91-2.381c-6.492-9.507-16.515-20-19.856-22.156-3.468-2.245-9.462-1.865-9.516-1.856a.2.2,0,0,1-.217-.163,5.691,5.691,0,0,1,1.467-4.609,9.1,9.1,0,0,1,6.909-3.169c5.161,0,12.269,2.744,15.854,6.13,3.5,3.3,11.879,5.922,12.83,6.211,1.349-.8,4.491.915,5.7,1.639-1.385-4.935-.824-6.836-.607-7.316-2.97-3.848-18.435-15.239-26.647-20.952h-.009c-2.264-1.585-3.966-2.725-4.708-3.16-3.83-2.255-7-9.308-6.383-14.234a4.544,4.544,0,0,1,1.82-3.423,4.363,4.363,0,0,1,2.581-.661,5.793,5.793,0,0,0-1.7,1.032c-2.517,2.146,3.486,13.473,6.863,16.606,3.531,3.269,19.413,11.381,25.117,16.217,3.133,2.653,7.244,6.673,7.244,6.673C337.028,255.532,340.133,263.962,338.413,265.32Z" transform="translate(-293.146 -195.981)" fill="#f0de9f" opacity="0.4"/>
        <path id="Path_2860" data-name="Path 2860" d="M407.539,194.522c-.009-.081-.009-.1.009-.063A.054.054,0,0,1,407.539,194.522Z" transform="translate(-303.962 -194.44)" fill="#92e3a9"/>
        <path id="Path_2861" data-name="Path 2861" d="M431.93,332.45c-6.727-6.4-16.742-16.371-18.616-20.744-2.861-6.7-4.772-12.884-8.33-17.394s-10.775-52.561-12.848-52.7c-2.019-.145,2.608,19,2.852,19.992-.2-.607-2.789-8.765-5.27-18.064-2.571-9.661-5.17-10.186-5.17-10.186-3.45.688-3.468,3.142-5.233,3.106s-7.823-4.337-7.823-4.337c-5.876.851-27.924-13.346-27.924-13.346-5.016.679-6.193,5.061-1.91,9.172s10.684,9.118,10.684,9.118c-4.129,2.01-19.286-6.492-19.286-6.492l-.905-.815c1.005.5,2,1,2.97,1.467a73.061,73.061,0,0,1,.453-8.593c.254-1.123,2.046-2.725,4.084-3.658.951-.435,2.743-1.059,4.011-.371.5.281,1.675,1.005,3.3,2.019.8.489,1.72,1.068,2.734,1.684a10.573,10.573,0,0,1,2.1-2.363c.679-.4,4.437-1.1,5.777-.625a94.239,94.239,0,0,1,8.882,5.324c.561.353,1.132.715,1.711,1.077.208-.389.7-1.2,1.159-1.385a10.343,10.343,0,0,1,6.112-.326c1.34.489,5.94,3.884,10.395,7.171,2.445,1.811,4.79,3.54,6.329,4.582a.22.22,0,0,1,.127.091c.444.3.815.534,1.1.7,3.278,1.874,11.336,44.141,11.418,44.566.525,2.834,2.445,5.759,4.473,8.855a46.819,46.819,0,0,1,5.578,10.4C417.443,307.921,423.32,318.959,431.93,332.45Z" transform="translate(-296.834 -196.696)" fill="#f0de9f" opacity="0.4"/>
        <g id="Group_4763" data-name="Group 4763" transform="translate(0.201 14.95)">
          <path id="Path_2862" data-name="Path 2862" d="M393.2,375.4s-19.911-53.235-24.73-57.426a19.213,19.213,0,0,1-5.869-10.06,32.825,32.825,0,0,0-11.736-13.2c-8.593-5.659-21.587-7.126-27.874-16.348s-16.348-19.91-19.911-22.215-9.64-1.886-9.64-1.886c-.629-3.564,3.353-7.545,8.173-7.545s11.946,2.514,15.719,6.077,12.994,6.287,12.994,6.287c1.467-1.048,6,1.861,6,1.861-1.807-6.131-.707-7.781-.707-7.781-3.563-4.821-27.928-22.164-31.491-24.259s-6.916-9.012-6.287-14.043a4.049,4.049,0,0,1,5.24-3.772s7.754,9.221,10.48,10.689,24.1,12.156,27.246,13.413a5.893,5.893,0,0,0,5.449-.419" transform="translate(-293.368 -210.952)" fill="none" stroke="#263238" stroke-linecap="round" stroke-linejoin="round" stroke-width="1"/>
          <path id="Path_2863" data-name="Path 2863" d="M335.652,231.567a79.1,79.1,0,0,1,.448-8.862c.419-1.886,5.5-5.157,7.8-3.9s19.288,12.42,23.712,12.912" transform="translate(-297.366 -211.668)" fill="none" stroke="#263238" stroke-linecap="round" stroke-linejoin="round" stroke-width="1"/>
          <path id="Path_2864" data-name="Path 2864" d="M351.588,222.7a12.008,12.008,0,0,1,2.157-2.476c.628-.367,4.349-1.055,5.607-.6,2.514.9,17.343,11.134,19.857,11.763" transform="translate(-298.873 -211.758)" fill="none" stroke="#263238" stroke-linecap="round" stroke-linejoin="round" stroke-width="1"/>
          <path id="Path_2865" data-name="Path 2865" d="M372.021,226.6s.641-1.285,1.156-1.492a10.074,10.074,0,0,1,5.972-.316c2.305.838,14.985,10.846,17.92,12.523s10.27,38.772,11.317,44.431,7.336,11.317,10.06,19.282,9.221,20.12,19.491,35.839c1.805,2.763,3.7,5.584,5.583,8.357" transform="translate(-300.805 -212.23)" fill="none" stroke="#263238" stroke-linecap="round" stroke-linejoin="round" stroke-width="1"/>
          <path id="Path_2866" data-name="Path 2866" d="M349.919,248.535s.943-4.244,3.458-6.13,5.973,1.1,8.489,1.414" transform="translate(-298.715 -213.867)" fill="none" stroke="#263238" stroke-linecap="round" stroke-linejoin="round" stroke-width="1"/>
          <path id="Path_2867" data-name="Path 2867" d="M368.842,241.137s1.414-4.881,3.93-5.981,6.392,2.2,8.068,2.358" transform="translate(-300.505 -213.219)" fill="none" stroke="#263238" stroke-linecap="round" stroke-linejoin="round" stroke-width="1"/>
          <path id="Path_2868" data-name="Path 2868" d="M387.07,236.727s1.886-1.785,2.672-1.8,4.087,3.446,4.794,3.682,1.575-1.058,2.791-1.079" transform="translate(-302.228 -213.219)" fill="none" stroke="#263238" stroke-linecap="round" stroke-linejoin="round" stroke-width="1"/>
          <path id="Path_2869" data-name="Path 2869" d="M380.743,232.023a6.551,6.551,0,0,1,3.921.969" transform="translate(-301.63 -212.943)" fill="none" stroke="#263238" stroke-linecap="round" stroke-linejoin="round" stroke-width="1"/>
          <path id="Path_2870" data-name="Path 2870" d="M339.94,257.064s-1.258-3.222-.629-4.872" transform="translate(-297.696 -214.851)" fill="none" stroke="#263238" stroke-linecap="round" stroke-linejoin="round" stroke-width="1"/>
          <path id="Path_2871" data-name="Path 2871" d="M342.715,231.446a7.024,7.024,0,0,1,1.572,3.155c.078,1.4,3.661,3.1,3.661,3.1" transform="translate(-298.034 -212.889)" fill="none" stroke="#263238" stroke-linecap="round" stroke-linejoin="round" stroke-width="1"/>
          <path id="Path_2872" data-name="Path 2872" d="M369.184,232.6s2.048-.733,3.148,0" transform="translate(-300.537 -212.968)" fill="none" stroke="#263238" stroke-linecap="round" stroke-linejoin="round" stroke-width="1"/>
          <path id="Path_2873" data-name="Path 2873" d="M340.022,261.692a6.28,6.28,0,0,1,2.437-5.45" transform="translate(-297.778 -215.234)" fill="none" stroke="#263238" stroke-linecap="round" stroke-linejoin="round" stroke-width="1"/>
          <path id="Path_2874" data-name="Path 2874" d="M340.562,266.167s-2.332,2.017-2.332,3.274" transform="translate(-297.61 -216.172)" fill="none" stroke="#263238" stroke-linecap="round" stroke-linejoin="round" stroke-width="1"/>
          <path id="Path_2875" data-name="Path 2875" d="M328.928,262.261c2.773,1.03,5.069,5.344,6.746,6.077" transform="translate(-296.731 -215.803)" fill="none" stroke="#263238" stroke-linecap="round" stroke-linejoin="round" stroke-width="1"/>
          <path id="Path_2876" data-name="Path 2876" d="M366.006,247.1c1.677,2.41,5.449,19.911,9.222,25.465" transform="translate(-300.237 -214.369)" fill="none" stroke="#263238" stroke-linecap="round" stroke-linejoin="round" stroke-width="1"/>
          <path id="Path_2877" data-name="Path 2877" d="M381.519,241.635c.314.21,2.515,7.022,2.515,7.022" transform="translate(-301.703 -213.853)" fill="none" stroke="#263238" stroke-linecap="round" stroke-linejoin="round" stroke-width="1"/>
          <path id="Path_2878" data-name="Path 2878" d="M412.592,289.286a40.617,40.617,0,0,0,2.984,10.111" transform="translate(-304.641 -218.358)" fill="none" stroke="#263238" stroke-linecap="round" stroke-linejoin="round" stroke-width="1"/>
          <path id="Path_2879" data-name="Path 2879" d="M369.83,318.141c-.287-1.146-1.5-8.691-2.989-11.207" transform="translate(-300.315 -220.027)" fill="none" stroke="#263238" stroke-linecap="round" stroke-linejoin="round" stroke-width="1"/>
        </g>
      </g>
    </g>
    <g id="Group_4768" data-name="Group 4768" transform="translate(67.715 250.687)">
      <path id="Path_2880" data-name="Path 2880" d="M89.893,432.885s29.46-39.613,51.678-46.867,23.318-17.093,22.41-35.456-.232-36.869-6.3-39.078,7.32-26.183.888-35.687l-42.035,66.049Z" transform="translate(-47.912 -271.804)" fill="rgba(0,0,0,0.7)" opacity="0.2"/>
      <g id="Group_4767" data-name="Group 4767">
        <path id="Path_2881" data-name="Path 2881" d="M78.363,443.506c-.127-.036-.272-.091-.444-.145.353.2.57.326.634.353C78.526,443.678,78.462,443.615,78.363,443.506Zm71.621-121.52c-3.667-1.693-10.811-9.634-11.707-10.63,4.545-7.624,9-14.976,10.548-16.742,3.214-3.658,7.135-14.188,5.541-19.3-1.458-4.69-6.229-3.939-6.881-3.812a.665.665,0,0,0-.072.018.159.159,0,0,0-.118.082c-.1.172-9.815,16.552-12.83,20.472-1.44,1.865-4.754,6.112-8.113,10.367-.172-.027-.534-.091-1.005-.154a17.422,17.422,0,0,0-6.383.181c-.063.018-.136.045-.208.072a21.872,21.872,0,0,0-3.106,1.648c-.127-.054-.38-.163-.715-.3a24.565,24.565,0,0,0-5.795-1.811c-1.711-.091-7.742,2.707-11.345,4.98a24.3,24.3,0,0,0-7.624-1.059c-2.762.118-8.394,2.408-12.921,4.247-2.01.815-3.749,1.521-4.763,1.838-.308.1-.6.181-.878.272-2.7.806-4.183,1.259-6.067,5.025-1.956,3.912-4.065,18.5-5.08,25.506l-.136.951a102.578,102.578,0,0,0-.263,12.559c.1,7.062.2,14.36-.851,17.222a44.833,44.833,0,0,1-5.578,10.069c-.3.426-.57.824-.824,1.2a31.049,31.049,0,0,0-3.359,7.072c-.761,2.01-1.711,4.219-2.635,6.239-1.7,3.739-3.287,6.827-3.287,6.827S75.565,440.4,78.363,443.506a3.863,3.863,0,0,0,.462.145c.109-.181,6.03-10.3,12.305-20.291,5.406-8.62,11.074-17.14,13.491-19.1a22.391,22.391,0,0,0,6.936-10.793c1.3-4.192,9.625-9.362,17.674-14.36,8.9-5.523,18.091-11.237,18.417-15.963.172-2.445.733-6.492,1.385-11.191C150.8,339.226,152.99,323.371,149.984,321.986Zm-15.248,20.354-3.957,3.875c-.561-3.169-4.41-7.379-5.016-8.022a33.13,33.13,0,0,0,.589-4.618c.145-1.766.3-3.595.733-3.921s2.436-3.595,5.7-9.064c.272,3.83,3.586,8.049,4.075,8.656Z" transform="translate(-43.528 -271.387)" fill="#fff"/>
        <path id="Path_2882" data-name="Path 2882" d="M88.1,333.784C86.927,344.215,76.7,370.093,76.7,370.093l-1.847-26.068s-7.886,35.376-10.1,36.653-6.012,8.04-8.167,13.41c-1.44,3.613-6.347,6.085-9.426,7.325.924-2.019,1.874-4.228,2.635-6.239a31.049,31.049,0,0,1,3.359-7.072c.254-.38.525-.779.824-1.2a44.833,44.833,0,0,0,5.578-10.069c1.05-2.861.951-10.159.851-17.222a102.578,102.578,0,0,1,.263-12.559l.136-.951c1.014-7.008,3.124-21.595,5.08-25.506,1.883-3.767,3.368-4.219,6.067-5.025.281-.091.57-.172.878-.272,1.014-.317,2.753-1.023,4.763-1.838,4.527-1.838,10.159-4.129,12.921-4.247a24.3,24.3,0,0,1,7.624,1.059c3.6-2.273,9.634-5.071,11.345-4.98a24.565,24.565,0,0,1,5.795,1.811C109.31,310.243,99.2,317.74,99.2,317.74,87.724,320.184,88.1,333.784,88.1,333.784Z" transform="translate(-43.871 -274.593)" fill="#f0de9f" opacity="0.4"/>
        <path id="Path_2883" data-name="Path 2883" d="M114.75,319.931a100.784,100.784,0,0,1,9.19-5.659c2.934-1.376,3.875-6.863,1.811-8.412a.576.576,0,0,0-.263-.109c.072-.027.145-.054.208-.072a17.422,17.422,0,0,1,6.383-.181c-3.794,5.7-6.764,10.06-7.551,11C121.876,319.668,114.75,319.931,114.75,319.931Z" transform="translate(-50.262 -274.593)" fill="#f0de9f" opacity="0.4"/>
        <path id="Path_2884" data-name="Path 2884" d="M131.28,360.93l1.385.6C131.823,364.887,131.28,360.93,131.28,360.93Z" transform="translate(-51.825 -279.854)" fill="#92e3a9" opacity="0.4"/>
        <path id="Path_2885" data-name="Path 2885" d="M154.954,321.986c-3.667-1.693-10.811-9.634-11.707-10.63,4.545-7.624,9-14.976,10.548-16.742,3.214-3.658,7.135-14.188,5.541-19.3-1.458-4.69-6.229-3.939-6.881-3.812l-.027.2s5.161.643,5.152,8.1-13.41,22.247-13.41,22.247-13.781,25.851-14.7,25.461-2.925,17.276-2.925,17.276,3.839,3.269,2.925,7.669q-.068.326-.136.6l5.9,2.544s5.922-4.156,8.928,1.956S115.3,385.512,112.8,388.736c0,0-.353,12.178-5.007,13.971-3.015,1.159-8.33,12.676-11.689,20.653,5.406-8.62,11.074-17.14,13.491-19.1a22.391,22.391,0,0,0,6.936-10.793c1.3-4.192,9.625-9.362,17.674-14.36,8.9-5.523,18.091-11.237,18.417-15.963.172-2.445.733-6.492,1.385-11.191C155.769,339.226,157.96,323.371,154.954,321.986Zm-15.248,20.354-3.957,3.875c-.561-3.169-4.41-7.379-5.016-8.022a33.131,33.131,0,0,0,.589-4.618c.145-1.766.3-3.595.733-3.921s2.436-3.595,5.7-9.064c.272,3.83,3.586,8.049,4.075,8.656Z" transform="translate(-48.499 -271.387)" fill="#f0de9f" opacity="0.4"/>
        <g id="Group_4766" data-name="Group 4766" transform="translate(0 0.186)">
          <path id="Path_2886" data-name="Path 2886" d="M118.46,316.985a12.255,12.255,0,0,0,6.421-3.67c2.752-3.058,13.76-17.124,16.818-21.1s12.843-20.488,12.843-20.488,5.2-1.222,6.727,3.67-2.14,15.283-5.5,19.109-20.488,34.1-21.711,35.015-.306,9.491-2.752,11.32" transform="translate(-50.613 -271.593)" fill="none" stroke="#263238" stroke-linecap="round" stroke-linejoin="round" stroke-width="1"/>
          <path id="Path_2887" data-name="Path 2887" d="M134.111,343.317s4.787,5.013,5.093,8.377l4.281-4.189,2.14-13.241s-4.23-5.1-4.1-9.275" transform="translate(-52.093 -276.642)" fill="none" stroke="#263238" stroke-linecap="round" stroke-linejoin="round" stroke-width="1"/>
          <path id="Path_2888" data-name="Path 2888" d="M141.706,315.556s7.89,8.949,11.865,10.784-1.834,32.106-2.446,40.974S117.8,388.7,115.043,397.587a22.081,22.081,0,0,1-6.88,10.7c-5.305,4.3-25.838,39.446-25.838,39.446" transform="translate(-47.196 -275.75)" fill="none" stroke="#263238" stroke-linecap="round" stroke-linejoin="round" stroke-width="1"/>
          <path id="Path_2889" data-name="Path 2889" d="M131.732,305.88s-4.664-.857-7.416,0-14.372,9.112-17.124,10.641-6.727,1.834-7.645,3.67" transform="translate(-48.825 -274.799)" fill="none" stroke="#263238" stroke-linecap="round" stroke-linejoin="round" stroke-width="1"/>
          <path id="Path_2890" data-name="Path 2890" d="M120.311,307.632s-4.7-2.045-6.531-2.133-9.173,3.377-12.537,5.824a26.608,26.608,0,0,1-8.562,4.18" transform="translate(-48.176 -274.799)" fill="none" stroke="#263238" stroke-linecap="round" stroke-linejoin="round" stroke-width="1"/>
          <path id="Path_2891" data-name="Path 2891" d="M97.815,310.908a23.747,23.747,0,0,0-7.641-1.077C86.2,310,75.8,314.891,72.54,315.911s-4.79,1.121-6.829,5.2-4.281,20.079-5.2,26.4.713,24.819-1.121,29.814-4.671,8.711-6.421,11.314c-3.485,5.183-3.093,9.093-9.443,20.037" transform="translate(-43.528 -275.207)" fill="none" stroke="#263238" stroke-linecap="round" stroke-linejoin="round" stroke-width="1"/>
          <path id="Path_2892" data-name="Path 2892" d="M94.768,323.244c-3.976,3.517-3.237,10.25-2.676,12.237s-1.911,9.932-2.676,14.213" transform="translate(-47.867 -276.477)" fill="none" stroke="#263238" stroke-linecap="round" stroke-linejoin="round" stroke-width="1"/>
          <path id="Path_2893" data-name="Path 2893" d="M122.157,326.959c-7.193.153-9.486,5.045-9.945,8.256" transform="translate(-50.022 -276.828)" fill="none" stroke="#263238" stroke-linecap="round" stroke-linejoin="round" stroke-width="1"/>
          <path id="Path_2894" data-name="Path 2894" d="M88.507,319.022c-2.14-.153-7.645,3.211-8.715,8.715" transform="translate(-46.957 -276.077)" fill="none" stroke="#263238" stroke-linecap="round" stroke-linejoin="round" stroke-width="1"/>
          <path id="Path_2895" data-name="Path 2895" d="M146.828,334.882s1.07-3.058,2.14-3.364" transform="translate(-53.295 -277.259)" fill="none" stroke="#263238" stroke-linecap="round" stroke-linejoin="round" stroke-width="1"/>
          <path id="Path_2896" data-name="Path 2896" d="M144.215,349.857a40.271,40.271,0,0,1-1.962,5.259c-.943,1.834,0,4.7,0,4.7" transform="translate(-52.823 -278.993)" fill="none" stroke="#263238" stroke-linecap="round" stroke-linejoin="round" stroke-width="1"/>
          <path id="Path_2897" data-name="Path 2897" d="M139.3,354.483c-.153,3.058-3.516,6.339-4.2,5.769" transform="translate(-52.186 -279.431)" fill="none" stroke="#263238" stroke-linecap="round" stroke-linejoin="round" stroke-width="1"/>
          <path id="Path_2898" data-name="Path 2898" d="M107.289,348.742c-.106,3.363-6.221,27.978-6.221,27.978" transform="translate(-48.969 -278.888)" fill="none" stroke="#263238" stroke-linecap="round" stroke-linejoin="round" stroke-width="1"/>
        </g>
      </g>
    </g>
  </g>
</svg>
