<svg xmlns="http://www.w3.org/2000/svg" width="24" height="24" viewBox="0 0 24 24">
  <g id="Group_4789" data-name="Group 4789" transform="translate(-339.9 -27)">
    <path id="Path_2905" data-name="Path 2905" d="M345.9,33v7a3,3,0,0,0,3,3h6a3,3,0,0,0,3-3V33a6,6,0,0,0-6-6h0A6,6,0,0,0,345.9,33Z" fill="#fff"/>
    <g id="Group_4788" data-name="Group 4788">
      <path id="Path_2906" data-name="Path 2906" d="M354.54,38.178a3.224,3.224,0,0,1-1.794.858v.684a.734.734,0,0,1-1.235.522.691.691,0,0,1-.2-.522v-.648a5.31,5.31,0,0,1-1.277-.276,4.26,4.26,0,0,1-1.086-.552.71.71,0,0,1-.27-.27.8.8,0,0,1-.078-.378.811.811,0,0,1,.186-.528.54.54,0,0,1,.425-.228,1.2,1.2,0,0,1,.564.192,4.876,4.876,0,0,0,1.051.474,3.568,3.568,0,0,0,1.037.15,1.9,1.9,0,0,0,1.1-.27.875.875,0,0,0,.384-.762.621.621,0,0,0-.222-.492,1.594,1.594,0,0,0-.546-.3q-.322-.108-.936-.276a12.479,12.479,0,0,1-1.463-.456,2.468,2.468,0,0,1-.991-.72,1.984,1.984,0,0,1-.414-1.32,2.282,2.282,0,0,1,.691-1.668,3.239,3.239,0,0,1,1.8-.888V29.82a.694.694,0,0,1,.2-.522.713.713,0,0,1,.517-.2.68.68,0,0,1,.719.72v.66a4.506,4.506,0,0,1,2.029.816.735.735,0,0,1,.257.276.823.823,0,0,1,.079.372.812.812,0,0,1-.187.528.542.542,0,0,1-.426.228.8.8,0,0,1-.245-.036,1.682,1.682,0,0,1-.319-.156,5.513,5.513,0,0,0-.882-.468,2.575,2.575,0,0,0-.954-.156,1.71,1.71,0,0,0-1.038.288.907.907,0,0,0-.389.768.7.7,0,0,0,.228.546,1.6,1.6,0,0,0,.575.33q.348.12.972.276a11.368,11.368,0,0,1,1.435.438,2.367,2.367,0,0,1,.959.708,1.974,1.974,0,0,1,.4,1.3A2.223,2.223,0,0,1,354.54,38.178Z" fill="#5e5e5e"/>
    </g>
    <path id="Path_2907" data-name="Path 2907" d="M358.9,35.09V40a4,4,0,0,1-4,4h-6a4,4,0,0,1-4-4V35.09a6,6,0,0,0-5,5.91v4a6,6,0,0,0,6,6h12a6,6,0,0,0,6-6V41A6,6,0,0,0,358.9,35.09Z" fill="#fff"/>
  </g>
</svg>
