<svg xmlns="http://www.w3.org/2000/svg" width="24" height="24" viewBox="0 0 24 24">
  <g id="Group_4803" data-name="Group 4803" transform="translate(-481 -27)">
    <path id="Path_2924" data-name="Path 2924" d="M496,48.063a2.487,2.487,0,0,1-1.768-.733l-4-4a2.5,2.5,0,0,1,3.536-3.535l1.954,1.954a.392.392,0,0,0,.556,0l1.155-1.155A8.483,8.483,0,0,0,490.5,37h-1a8.5,8.5,0,0,0-8.5,8.515A5.532,5.532,0,0,0,486.549,51H493.5a5.5,5.5,0,0,0,5.46-4.862l-1.192,1.192A2.487,2.487,0,0,1,496,48.063Z" fill="#fff"/>
    <circle id="Ellipse_64" data-name="Ellipse 64" cx="4.5" cy="4.5" r="4.5" transform="translate(486 27)" fill="#fff"/>
    <path id="Path_2925" data-name="Path 2925" d="M504.413,36.872a1.569,1.569,0,0,0-2.044.2l-6.031,6.03a.477.477,0,0,1-.676,0l-2.6-2.6a1.538,1.538,0,0,0-2.122,0,1.5,1.5,0,0,0,0,2.121l4,4a1.5,1.5,0,0,0,2.122,0l7.5-7.5a1.5,1.5,0,0,0-.148-2.251Z"/>
  </g>
</svg>
