<svg xmlns="http://www.w3.org/2000/svg" width="24" height="24" viewBox="0 0 24 24">
  <g id="Group_4804" data-name="Group 4804" transform="translate(-521 -27)">
    <path id="Path_2926" data-name="Path 2926" d="M534.268,47.768a2.537,2.537,0,0,1-3.535,0,2.5,2.5,0,0,1,0-3.536l3.732-3.732-3.475-3.475c-.163-.01-.325-.025-.49-.025h-1a8.5,8.5,0,0,0-8.5,8.5,5.5,5.5,0,0,0,5.5,5.5h7a5.5,5.5,0,0,0,5.5-5.5c0-.165-.015-.327-.025-.49L538,44.035Z" fill="#fff"/>
    <path id="Path_2927" data-name="Path 2927" d="M530.733,33.232a2.5,2.5,0,0,1,3.535,0l.252.252A4.444,4.444,0,0,0,535,31.5a4.5,4.5,0,1,0-4.8,4.47A2.5,2.5,0,0,1,530.733,33.232Z" fill="#fff"/>
    <path id="Path_2928" data-name="Path 2928" d="M540.122,40.5l4.439-4.439a1.5,1.5,0,0,0-2.121-2.122L538,38.379l-4.44-4.44a1.5,1.5,0,1,0-2.121,2.122l4.44,4.439-4.44,4.439a1.5,1.5,0,0,0,0,2.122,1.537,1.537,0,0,0,2.121,0l4.44-4.44,4.439,4.44a1.5,1.5,0,0,0,2.121-2.122Z"/>
  </g>
</svg>
