<svg xmlns="http://www.w3.org/2000/svg" width="16" height="16" viewBox="0 0 16 16">
  <g id="Group_5008" data-name="Group 5008" transform="translate(-92.896 -57.229)">
    <path id="Path_3079" data-name="Path 3079" d="M100.906,58.562a6.668,6.668,0,1,1-.021,0h.021m0-1.333h-.021a8,8,0,0,0-7.99,8h0a7.994,7.994,0,0,0,7.99,8h.021a8,8,0,0,0,7.99-8h0a8,8,0,0,0-7.99-8Z" transform="translate(0)" fill="#fff"/>
    <path id="Path_3080" data-name="Path 3080" d="M106.781,66.088H103.1V62.4a.669.669,0,1,0-1.339,0v3.689H98.08a.671.671,0,0,0,0,1.341h3.681v3.689a.669.669,0,1,0,1.339,0V67.43h3.681a.671.671,0,0,0,0-1.341Z" transform="translate(-1.535 -1.53)" fill="#fff"/>
  </g>
</svg>
