<svg xmlns="http://www.w3.org/2000/svg" width="24" height="24" viewBox="0 0 24 24">
  <g id="Group_4352" data-name="Group 4352" transform="translate(-338 -1882.851)">
    <rect id="Rectangle_215" data-name="Rectangle 215" width="24" height="24" transform="translate(338 1882.851)" fill="#fff" opacity="0"/>
    <g id="Rectangle_218" data-name="Rectangle 218" transform="translate(338 1887.851)" fill="none" stroke="#fff" stroke-width="2">
      <rect width="24" height="19" rx="6" stroke="none"/>
      <rect x="1" y="1" width="22" height="17" rx="5" fill="none"/>
    </g>
    <g id="Rectangle_225" data-name="Rectangle 225" transform="translate(345 1882.851)" fill="none" stroke="#fff" stroke-width="2">
      <path d="M5,0H5a5,5,0,0,1,5,5V7a0,0,0,0,1,0,0H0A0,0,0,0,1,0,7V5A5,5,0,0,1,5,0Z" stroke="none"/>
      <path d="M5,1H5A4,4,0,0,1,9,5v.333A.667.667,0,0,1,8.333,6H1.667A.667.667,0,0,1,1,5.333V5A4,4,0,0,1,5,1Z" fill="none"/>
    </g>
  </g>
</svg>
